<svg xmlns="http://www.w3.org/2000/svg" viewBox="0 0 964.49 531.68"><defs><style>.cls-1{fill:#d39797;}.cls-2{fill:#131723;}.cls-3{fill:#af7777;}.cls-4{fill:#97d197;}.cls-5{fill:#7db77d;}.cls-6{fill:#cccc97;}.cls-7{fill:#b5b57d;}.cls-8{fill:#9acc9a;}.cls-9{fill:#7db280;}.cls-10,.cls-11,.cls-12,.cls-13,.cls-14,.cls-15,.cls-16{fill:none;stroke-linecap:round;stroke-linejoin:round;stroke-width:9px;}.cls-10,.cls-11,.cls-12,.cls-13{stroke:#9acc9a;}.cls-11{stroke-dasharray:2.01 12.06;}.cls-12{stroke-dasharray:1.99 11.93;}.cls-13{stroke-dasharray:1.95 11.69;}.cls-14,.cls-15,.cls-16{stroke:#cccc97;}.cls-15{stroke-dasharray:2.04 12.21;}.cls-16{stroke-dasharray:1.99 11.96;}</style></defs><g id="Capa_2" data-name="Capa 2"><g id="Capa_2-2" data-name="Capa 2"><rect class="cls-1" y="149" width="339.78" height="236.63" rx="27.18"/><rect class="cls-2" x="12.13" y="161.14" width="315.51" height="200.21" rx="15.28"/><path class="cls-3" d="M213.72,398.83a62.32,62.32,0,0,1-1-13.2H127.06a62,62,0,0,1-3.27,21.85H216A63.43,63.43,0,0,1,213.72,398.83Z"/><rect class="cls-1" x="106.79" y="407.48" width="126.2" height="15.78" rx="7.89"/><rect class="cls-4" x="29.53" y="182.85" width="132.4" height="25.35" rx="7.21"/><rect class="cls-4" x="29.53" y="215.21" width="132.4" height="25.35" rx="7.21"/><rect class="cls-4" x="29.53" y="247.57" width="132.4" height="25.35" rx="7.21"/><rect class="cls-4" x="29.53" y="279.93" width="132.4" height="25.35" rx="7.21"/><rect class="cls-4" x="29.53" y="312.29" width="132.4" height="25.35" rx="7.21"/><rect class="cls-5" x="38.66" y="188.37" width="39.91" height="5.12" rx="2.56"/><rect class="cls-5" x="38.66" y="197.56" width="93.17" height="5.12" rx="2.56"/><rect class="cls-5" x="38.66" y="220.73" width="39.91" height="5.12" rx="2.56"/><rect class="cls-5" x="38.66" y="229.92" width="93.17" height="5.12" rx="2.56"/><rect class="cls-5" x="38.66" y="254.09" width="39.91" height="5.12" rx="2.56"/><rect class="cls-5" x="38.66" y="263.28" width="93.17" height="5.12" rx="2.56"/><rect class="cls-5" x="38.66" y="285.45" width="39.91" height="5.12" rx="2.56"/><rect class="cls-5" x="38.66" y="294.64" width="93.17" height="5.12" rx="2.56"/><rect class="cls-5" x="38.66" y="317.81" width="39.91" height="5.12" rx="2.56"/><rect class="cls-5" x="38.66" y="327" width="93.17" height="5.12" rx="2.56"/><rect class="cls-6" x="176.76" y="247.57" width="132.4" height="25.35" rx="7.21"/><rect class="cls-6" x="176.76" y="279.93" width="132.4" height="25.35" rx="7.21"/><rect class="cls-6" x="176.76" y="312.29" width="132.4" height="25.35" rx="7.21"/><rect class="cls-7" x="185.9" y="254.09" width="39.91" height="5.12" rx="2.56"/><rect class="cls-7" x="185.9" y="263.28" width="93.17" height="5.12" rx="2.56"/><rect class="cls-7" x="185.9" y="285.45" width="39.91" height="5.12" rx="2.56"/><rect class="cls-7" x="185.9" y="294.64" width="93.17" height="5.12" rx="2.56"/><rect class="cls-7" x="185.9" y="317.81" width="39.91" height="5.12" rx="2.56"/><rect class="cls-7" x="185.9" y="327" width="93.17" height="5.12" rx="2.56"/><rect class="cls-8" x="571.69" width="392.8" height="87.1" rx="12.25"/><rect class="cls-8" x="571.69" y="111.19" width="392.8" height="87.1" rx="12.25"/><rect class="cls-8" x="571.69" y="222.38" width="392.8" height="87.1" rx="12.25"/><rect class="cls-9" x="598.79" y="22.4" width="118.4" height="17.61" rx="7.6"/><rect class="cls-9" x="598.79" y="53.97" width="276.4" height="17.61" rx="7.6"/><rect class="cls-9" x="598.79" y="130.15" width="118.4" height="17.61" rx="7.6"/><rect class="cls-9" x="598.79" y="161.72" width="276.4" height="17.61" rx="7.6"/><rect class="cls-9" x="598.79" y="241.34" width="118.4" height="17.61" rx="7.6"/><rect class="cls-9" x="598.79" y="272.91" width="276.4" height="17.61" rx="7.6"/><rect class="cls-6" x="571.69" y="333.39" width="392.8" height="87.1" rx="12.25"/><rect class="cls-6" x="571.69" y="444.58" width="392.8" height="87.1" rx="12.25"/><rect class="cls-7" x="598.79" y="352.35" width="118.4" height="17.61" rx="7.6"/><rect class="cls-7" x="598.79" y="383.92" width="276.4" height="17.61" rx="7.6"/><rect class="cls-7" x="598.79" y="463.54" width="118.4" height="17.61" rx="7.6"/><rect class="cls-7" x="598.79" y="495.11" width="276.4" height="17.61" rx="7.6"/><line class="cls-10" x1="351.74" y1="188.37" x2="352.74" y2="188.37"/><path class="cls-11" d="M364.8,188.37h30.26c6.9,0,12.5-6.9,12.5-15.41V59c0-8.51,5.6-15.41,12.51-15.41H549.39"/><line class="cls-10" x1="555.42" y1="43.55" x2="556.42" y2="43.55"/><line class="cls-10" x1="351.74" y1="213.03" x2="352.74" y2="213.03"/><path class="cls-12" d="M364.67,213h54.12c6.9,0,12.5-7.57,12.5-16.9V171.65c0-9.34,5.6-16.91,12.51-16.91H549.45"/><line class="cls-10" x1="555.42" y1="154.74" x2="556.42" y2="154.74"/><line class="cls-10" x1="351.74" y1="265.84" x2="352.74" y2="265.84"/><line class="cls-13" x1="364.43" y1="265.84" x2="549.57" y2="265.84"/><line class="cls-10" x1="555.42" y1="265.84" x2="556.42" y2="265.84"/><line class="cls-14" x1="351.74" y1="312.29" x2="352.74" y2="312.29"/><path class="cls-15" d="M365,312.29h53.84c6.9,0,12.5,8.33,12.5,18.61v27.43c0,10.27,5.6,18.61,12.51,18.61H549.31"/><line class="cls-14" x1="555.42" y1="376.94" x2="556.42" y2="376.94"/><line class="cls-14" x1="351.74" y1="332.12" x2="352.74" y2="332.12"/><path class="cls-16" d="M364.7,332.12h30.36c6.9,0,12.5,6.95,12.5,15.53v125c0,8.57,5.6,15.53,12.51,15.53H549.44"/><line class="cls-14" x1="555.42" y1="488.13" x2="556.42" y2="488.13"/></g></g></svg>