<svg xmlns="http://www.w3.org/2000/svg" viewBox="0 0 560.81 391.8"><defs><style>.cls-1{fill:#071929;}.cls-2{fill:#6390b8;}.cls-3{fill:#baff8d;}.cls-4{fill:#2a5368;}</style></defs><g id="Capa_2" data-name="Capa 2"><g id="Capa_7" data-name="Capa 7"><rect class="cls-1" x="47.38" y="134.22" width="46.56" height="44.47"/><path class="cls-2" d="M94.76,179.5H46.56V133.4h48.2ZM48.2,177.86H93.12V135H48.2Z"/><rect class="cls-1" x="47.38" y="89.75" width="46.56" height="44.47"/><path class="cls-2" d="M94.76,135H46.56V88.93h48.2ZM48.2,133.4H93.12V90.57H48.2Z"/><rect class="cls-1" x="373.3" y="45.29" width="46.56" height="44.47"/><path class="cls-2" d="M420.68,90.57h-48.2V44.47h48.2Zm-46.56-1.64H419V46.1H374.12Z"/><rect class="cls-1" x="326.74" y="45.29" width="46.56" height="44.47"/><path class="cls-2" d="M374.12,90.57h-48.2V44.47h48.2Zm-46.56-1.64h44.92V46.1H327.56Z"/><rect class="cls-1" x="47.38" y="45.29" width="46.56" height="44.47"/><path class="cls-2" d="M94.76,90.57H46.56V44.47h48.2ZM48.2,88.93H93.12V46.1H48.2Z"/><rect class="cls-1" x="419.86" y="45.29" width="46.56" height="44.47"/><path class="cls-2" d="M467.24,90.57H419V44.47h48.2Zm-46.56-1.64H465.6V46.1H420.68Z"/><rect class="cls-1" x="280.18" y="45.29" width="46.56" height="44.47"/><path class="cls-2" d="M327.56,90.57h-48.2V44.47h48.2ZM281,88.93h44.92V46.1H281Z"/><rect class="cls-1" x="466.42" y="45.29" width="46.56" height="44.47"/><path class="cls-2" d="M513.8,90.57H465.6V44.47h48.2Zm-46.56-1.64h44.92V46.1H467.24Z"/><rect class="cls-1" x="512.98" y="45.29" width="46.56" height="44.47"/><path class="cls-2" d="M560.36,90.57h-48.2V44.47h48.2ZM513.8,88.93h44.92V46.1H513.8Z"/><rect class="cls-1" x="140.5" y="45.29" width="46.56" height="44.47"/><path class="cls-2" d="M187.88,90.57h-48.2V44.47h48.2Zm-46.56-1.64h44.92V46.1H141.32Z"/><rect class="cls-1" x="233.62" y="45.29" width="46.56" height="44.47"/><path class="cls-2" d="M281,90.57H232.8V44.47H281Zm-46.56-1.64h44.92V46.1H234.44Z"/><rect class="cls-1" x="93.94" y="45.29" width="46.56" height="44.47"/><path class="cls-2" d="M141.32,90.57H93.12V44.47h48.2ZM94.76,88.93h44.92V46.1H94.76Z"/><rect class="cls-1" x="187.06" y="45.29" width="46.56" height="44.47"/><path class="cls-2" d="M234.44,90.57h-48.2V44.47h48.2Zm-46.56-1.64H232.8V46.1H187.88Z"/><rect class="cls-1" x="512.98" y="89.75" width="46.56" height="44.47"/><path class="cls-2" d="M560.36,135h-48.2V88.93h48.2ZM513.8,133.4h44.92V90.57H513.8Z"/><rect class="cls-1" x="466.42" y="89.75" width="46.56" height="44.47"/><path class="cls-2" d="M513.8,135H465.6V88.93h48.2Zm-46.56-1.64h44.92V90.57H467.24Z"/><rect class="cls-1" x="326.74" y="89.75" width="46.56" height="44.47"/><path class="cls-2" d="M374.12,135h-48.2V88.93h48.2Zm-46.56-1.64h44.92V90.57H327.56Z"/><rect class="cls-1" x="280.18" y="89.75" width="46.56" height="44.47"/><path class="cls-2" d="M327.56,135h-48.2V88.93h48.2ZM281,133.4h44.92V90.57H281Z"/><rect class="cls-1" x="373.3" y="89.75" width="46.56" height="44.47"/><path class="cls-2" d="M420.68,135h-48.2V88.93h48.2Zm-46.56-1.64H419V90.57H374.12Z"/><rect class="cls-1" x="419.86" y="89.75" width="46.56" height="44.47"/><path class="cls-2" d="M467.24,135H419V88.93h48.2Zm-46.56-1.64H465.6V90.57H420.68Z"/><rect class="cls-1" x="233.62" y="89.75" width="46.56" height="44.47"/><path class="cls-2" d="M281,135H232.8V88.93H281Zm-46.56-1.64h44.92V90.57H234.44Z"/><rect class="cls-1" x="466.42" y="134.22" width="46.56" height="44.47"/><path class="cls-2" d="M513.8,179.5H465.6V133.4h48.2Zm-46.56-1.64h44.92V135H467.24Z"/><rect class="cls-1" x="512.98" y="134.22" width="46.56" height="44.47"/><path class="cls-2" d="M560.36,179.5h-48.2V133.4h48.2Zm-46.56-1.64h44.92V135H513.8Z"/><rect class="cls-1" x="187.06" y="89.75" width="46.56" height="44.47"/><path class="cls-2" d="M234.44,135h-48.2V88.93h48.2Zm-46.56-1.64H232.8V90.57H187.88Z"/><rect class="cls-1" x="93.94" y="134.22" width="46.56" height="44.47"/><path class="cls-2" d="M141.32,179.5H93.12V133.4h48.2Zm-46.56-1.64h44.92V135H94.76Z"/><rect class="cls-1" x="140.5" y="134.22" width="46.56" height="44.47"/><path class="cls-2" d="M187.88,179.5h-48.2V133.4h48.2Zm-46.56-1.64h44.92V135H141.32Z"/><rect class="cls-1" x="140.5" y="89.75" width="46.56" height="44.47"/><path class="cls-2" d="M187.88,135h-48.2V88.93h48.2Zm-46.56-1.64h44.92V90.57H141.32Z"/><rect class="cls-1" x="419.86" y="134.22" width="46.56" height="44.47"/><path class="cls-2" d="M467.24,179.5H419V133.4h48.2Zm-46.56-1.64H465.6V135H420.68Z"/><rect class="cls-1" x="187.06" y="134.22" width="46.56" height="44.47"/><path class="cls-2" d="M234.44,179.5h-48.2V133.4h48.2Zm-46.56-1.64H232.8V135H187.88Z"/><rect class="cls-1" x="93.94" y="89.75" width="46.56" height="44.47"/><path class="cls-2" d="M141.32,135H93.12V88.93h48.2ZM94.76,133.4h44.92V90.57H94.76Z"/><rect class="cls-1" x="326.74" y="134.22" width="46.56" height="44.47"/><path class="cls-2" d="M374.12,179.5h-48.2V133.4h48.2Zm-46.56-1.64h44.92V135H327.56Z"/><rect class="cls-1" x="233.62" y="134.22" width="46.56" height="44.47"/><path class="cls-2" d="M281,179.5H232.8V133.4H281Zm-46.56-1.64h44.92V135H234.44Z"/><rect class="cls-1" x="373.3" y="134.22" width="46.56" height="44.47"/><path class="cls-2" d="M420.68,179.5h-48.2V133.4h48.2Zm-46.56-1.64H419V135H374.12Z"/><rect class="cls-1" x="280.18" y="134.22" width="46.56" height="44.47"/><path class="cls-2" d="M327.56,179.5h-48.2V133.4h48.2ZM281,177.86h44.92V135H281Z"/><rect class="cls-1" x="280.18" y="178.68" width="46.56" height="44.47"/><path class="cls-2" d="M327.56,224h-48.2V177.86h48.2ZM281,222.33h44.92V179.5H281Z"/><rect class="cls-1" x="140.5" y="178.68" width="46.56" height="44.47"/><path class="cls-2" d="M187.88,224h-48.2V177.86h48.2Zm-46.56-1.64h44.92V179.5H141.32Z"/><rect class="cls-1" x="93.94" y="178.68" width="46.56" height="44.47"/><path class="cls-2" d="M141.32,224H93.12V177.86h48.2Zm-46.56-1.64h44.92V179.5H94.76Z"/><rect class="cls-1" x="326.74" y="178.68" width="46.56" height="44.47"/><path class="cls-2" d="M374.12,224h-48.2V177.86h48.2Zm-46.56-1.64h44.92V179.5H327.56Z"/><rect class="cls-1" x="187.06" y="178.68" width="46.56" height="44.47"/><path class="cls-2" d="M234.44,224h-48.2V177.86h48.2Zm-46.56-1.64H232.8V179.5H187.88Z"/><rect class="cls-1" x="466.42" y="178.68" width="46.56" height="44.47"/><path class="cls-2" d="M513.8,224H465.6V177.86h48.2Zm-46.56-1.64h44.92V179.5H467.24Z"/><path class="cls-1" d="M513,178.68v44.47h31.81a14.75,14.75,0,0,0,14.75-14.75V178.68Z"/><path class="cls-2" d="M544.79,224H512.16V177.86h48.2V208.4A15.59,15.59,0,0,1,544.79,224Zm-31-1.64h31a14,14,0,0,0,13.93-13.93V179.5H513.8Z"/><rect class="cls-1" x="419.86" y="178.68" width="46.56" height="44.47"/><path class="cls-2" d="M467.24,224H419V177.86h48.2Zm-46.56-1.64H465.6V179.5H420.68Z"/><rect class="cls-1" x="373.3" y="178.68" width="46.56" height="44.47"/><path class="cls-2" d="M420.68,224h-48.2V177.86h48.2Zm-46.56-1.64H419V179.5H374.12Z"/><rect class="cls-1" x="233.62" y="178.68" width="46.56" height="44.47"/><path class="cls-2" d="M281,224H232.8V177.86H281Zm-46.56-1.64h44.92V179.5H234.44Z"/><path class="cls-1" d="M47.38.82H45.29A44.47,44.47,0,0,0,.82,45.29H47.38Z"/><path class="cls-2" d="M48.2,46.1H0v-.81A45.33,45.33,0,0,1,45.29,0H48.2ZM1.65,44.47H46.56V1.64H45.29A43.68,43.68,0,0,0,1.65,44.47Z"/><rect class="cls-1" x="187.06" y="0.82" width="46.56" height="44.47"/><path class="cls-2" d="M234.44,46.1h-48.2V0h48.2Zm-46.56-1.63H232.8V1.64H187.88Z"/><rect class="cls-1" x="0.82" y="45.29" width="46.56" height="44.47"/><path class="cls-2" d="M48.2,90.57H0V44.47H48.2ZM1.64,88.93H46.56V46.1H1.64Z"/><rect class="cls-1" x="140.5" y="0.82" width="46.56" height="44.47"/><path class="cls-2" d="M187.88,46.1h-48.2V0h48.2Zm-46.56-1.63h44.92V1.64H141.32Z"/><rect class="cls-1" x="93.94" y="0.82" width="46.56" height="44.47"/><path class="cls-2" d="M141.32,46.1H93.12V0h48.2ZM94.76,44.47h44.92V1.64H94.76Z"/><path class="cls-1" d="M.82,178.68V208.4a14.75,14.75,0,0,0,14.75,14.75H47.38V178.68Z"/><path class="cls-2" d="M48.2,224H15.57A15.59,15.59,0,0,1,0,208.4V177.86H48.2ZM1.64,179.5v28.9a14,14,0,0,0,13.93,13.93h31V179.5Z"/><rect class="cls-1" x="47.38" y="178.68" width="46.56" height="44.47"/><path class="cls-2" d="M94.76,224H46.56V177.86h48.2ZM48.2,222.33H93.12V179.5H48.2Z"/><rect class="cls-1" x="0.82" y="89.75" width="46.56" height="44.47"/><path class="cls-2" d="M48.2,135H0V88.93H48.2ZM1.64,133.4H46.56V90.57H1.64Z"/><rect class="cls-1" x="0.82" y="134.22" width="46.56" height="44.47"/><path class="cls-2" d="M48.2,179.5H0V133.4H48.2ZM1.64,177.86H46.56V135H1.64Z"/><rect class="cls-1" x="47.38" y="0.82" width="46.56" height="44.47"/><path class="cls-2" d="M94.76,46.1H46.56V0h48.2ZM48.2,44.47H93.12V1.64H48.2Z"/><rect class="cls-1" x="233.62" y="0.82" width="46.56" height="44.47"/><path class="cls-2" d="M281,46.1H232.8V0H281Zm-46.56-1.63h44.92V1.64H234.44Z"/><path class="cls-1" d="M559.54,45.29V15.57A14.75,14.75,0,0,0,544.79.82H513V45.29Z"/><path class="cls-2" d="M560.36,46.1h-48.2V0h32.63a15.59,15.59,0,0,1,15.57,15.57ZM513.8,44.47h44.92V15.57A14,14,0,0,0,544.79,1.64h-31Z"/><rect class="cls-1" x="466.42" y="0.82" width="46.56" height="44.47"/><path class="cls-2" d="M513.8,46.1H465.6V0h48.2Zm-46.56-1.63h44.92V1.64H467.24Z"/><rect class="cls-1" x="280.18" y="0.82" width="46.56" height="44.47"/><path class="cls-2" d="M327.56,46.1h-48.2V0h48.2ZM281,44.47h44.92V1.64H281Z"/><rect class="cls-1" x="326.74" y="0.82" width="46.56" height="44.47"/><path class="cls-2" d="M374.12,46.1h-48.2V0h48.2Zm-46.56-1.63h44.92V1.64H327.56Z"/><rect class="cls-1" x="419.86" y="0.82" width="46.56" height="44.47"/><path class="cls-2" d="M467.24,46.1H419V0h48.2Zm-46.56-1.63H465.6V1.64H420.68Z"/><rect class="cls-1" x="373.3" y="0.82" width="46.56" height="44.47"/><path class="cls-2" d="M420.68,46.1h-48.2V0h48.2Zm-46.56-1.63H419V1.64H374.12Z"/><path class="cls-2" d="M22.07,57.19h4.09l8.15,21.18H30.12L28.46,74H19.82l-1.73,4.36H13.9Zm2.07,5.61L21.3,70.08H27Z"/><path class="cls-2" d="M18,122.84V101.65h3.33a17.12,17.12,0,0,1,4.24.38,5.65,5.65,0,0,1,3,1.87,4.92,4.92,0,0,1,1.13,3.22,4.72,4.72,0,0,1-.51,2.2,5.61,5.61,0,0,1-1.67,1.85,6.68,6.68,0,0,1,2.83,2.27,5.78,5.78,0,0,1,.89,3.22,6,6,0,0,1-.92,3.25,5.9,5.9,0,0,1-2.38,2.2,9.07,9.07,0,0,1-4,.73Zm4-17.34V110h.88a3.25,3.25,0,0,0,2.19-.62,2.09,2.09,0,0,0,.71-1.68,2,2,0,0,0-.68-1.58A3.09,3.09,0,0,0,23,105.5Zm0,8.06V119h1a6.26,6.26,0,0,0,3.38-.63,2.12,2.12,0,0,0,.88-1.84,2.58,2.58,0,0,0-1-2.17,5.72,5.72,0,0,0-3.41-.79Z"/><path class="cls-2" d="M34.49,149.84l-2.82,2.69a8.73,8.73,0,0,0-6.47-3,7.09,7.09,0,0,0-7.2,7.19,7.63,7.63,0,0,0,.92,3.77A6.61,6.61,0,0,0,21.53,163a7.57,7.57,0,0,0,3.74.93,7.68,7.68,0,0,0,3.21-.65,11.55,11.55,0,0,0,3.19-2.39l2.73,2.85A14.91,14.91,0,0,1,30,167a12.11,12.11,0,0,1-4.77.89,11,11,0,0,1-8.09-3.13A11.84,11.84,0,0,1,15.4,151a10.7,10.7,0,0,1,4.1-4,11.59,11.59,0,0,1,5.76-1.49,12,12,0,0,1,5,1.1A12.16,12.16,0,0,1,34.49,149.84Z"/><path class="cls-2" d="M16.21,190.58H21a15.82,15.82,0,0,1,6.87,1.15,9,9,0,0,1,3.7,3.72A13.09,13.09,0,0,1,32.19,206a9.24,9.24,0,0,1-2.25,3.41,7.87,7.87,0,0,1-3.1,1.87,21.84,21.84,0,0,1-5.78.52H16.21Zm4,3.89v13.37h1.87a9.22,9.22,0,0,0,4-.64,4.8,4.8,0,0,0,2-2.13,7.81,7.81,0,0,0,.79-3.69A7,7,0,0,0,27,196.15q-1.71-1.68-5.46-1.68Z"/><path class="cls-2" d="M113.81,12.72h6V33.91h-4V16.51h-4.36Z"/><path class="cls-2" d="M70.59,12.19a6.94,6.94,0,0,1,4,1.14,7.14,7.14,0,0,1,2.59,3.47,18.51,18.51,0,0,1,.92,6.52,18.48,18.48,0,0,1-.93,6.57,7.41,7.41,0,0,1-2.5,3.45,6.78,6.78,0,0,1-4,1.1,7,7,0,0,1-4-1.11A7.29,7.29,0,0,1,64.14,30a17.79,17.79,0,0,1-.92-6.44c0-3.89.6-6.7,1.8-8.45A6.4,6.4,0,0,1,70.59,12.19Zm.1,3.83a2.77,2.77,0,0,0-1.81.65,4.26,4.26,0,0,0-1.21,2.26,19.58,19.58,0,0,0-.42,4.68q0,4,1,5.55a2.84,2.84,0,0,0,2.48,1.54A2.64,2.64,0,0,0,73,29.24q1-1.75,1-5.88t-.94-5.76A2.78,2.78,0,0,0,70.69,16Z"/><path class="cls-2" d="M160.66,19.55h-3.93a7.74,7.74,0,0,1,2.15-5.4A7.63,7.63,0,0,1,167.41,13a6.12,6.12,0,0,1,2.36,2.35,6.17,6.17,0,0,1,.89,3.12,9.18,9.18,0,0,1-1.08,4.06,22,22,0,0,1-3.92,5.14l-2.38,2.51h7.55v3.73H156.15V32l6.56-6.69a19.55,19.55,0,0,0,3.16-3.86,5.75,5.75,0,0,0,.78-2.65,2.72,2.72,0,0,0-.81-2,2.87,2.87,0,0,0-2.1-.8,2.77,2.77,0,0,0-2.16,1A4,4,0,0,0,160.66,19.55Z"/><path class="cls-2" d="M207.68,18h-3.87a6.4,6.4,0,0,1,1.68-3.77,6.48,6.48,0,0,1,4.86-2,6.17,6.17,0,0,1,4.37,1.65,5.25,5.25,0,0,1,1.76,3.94,4.57,4.57,0,0,1-.77,2.57,5.47,5.47,0,0,1-2.24,1.89,5.68,5.68,0,0,1,3,2,5.47,5.47,0,0,1,1.09,3.38,6.36,6.36,0,0,1-2.11,4.83,7.48,7.48,0,0,1-5.35,2,7,7,0,0,1-5-1.86A7.31,7.31,0,0,1,203,27.5h4a4,4,0,0,0,1.14,2.44,3.23,3.23,0,0,0,2.24.8,3.2,3.2,0,0,0,2.34-.91,3,3,0,0,0,.93-2.22,3,3,0,0,0-1.25-2.43,5.86,5.86,0,0,0-3.62-1V20.7a6.81,6.81,0,0,0,2.17-.45,2.69,2.69,0,0,0,1.11-.93,2.26,2.26,0,0,0,.4-1.26,1.9,1.9,0,0,0-.61-1.43,2.2,2.2,0,0,0-1.58-.57A2.7,2.7,0,0,0,207.68,18Z"/><path class="cls-2" d="M258.42,12.19h4V25.83h1.88v3.73h-1.88v4.35h-3.95V29.56h-9.25V25.83Zm.07,13.64v-7.1l-4.84,7.1Z"/><path class="cls-2" d="M300.12,12.72h9.93v3.73h-6.92l-.86,3.85a4.74,4.74,0,0,1,.71-.15,3.85,3.85,0,0,1,.66-.06,6.4,6.4,0,0,1,4.79,2,6.94,6.94,0,0,1,1.91,5,7.17,7.17,0,0,1-2.11,5.23,7,7,0,0,1-5.14,2.12,7.09,7.09,0,0,1-7.2-5.76h4.23a3.68,3.68,0,0,0,1.29,1.5,3.27,3.27,0,0,0,1.77.52,3.05,3.05,0,0,0,2.27-1,3.76,3.76,0,0,0,.07-4.89,2.8,2.8,0,0,0-3.41-.61,4.83,4.83,0,0,0-1.27,1l-3.28-.73Z"/><path class="cls-2" d="M350.31,12.19l3.44,1.72L350,21.1A6.19,6.19,0,0,1,354.62,23a6.6,6.6,0,0,1,1.89,4.8,6.65,6.65,0,0,1-11.39,4.62,6.45,6.45,0,0,1-1.91-4.58,6.78,6.78,0,0,1,.3-2,20.3,20.3,0,0,1,1.36-3Zm-.5,12.73a2.5,2.5,0,0,0-1.89.81,3.08,3.08,0,0,0,0,4.1,2.48,2.48,0,0,0,1.86.84,2.62,2.62,0,0,0,1.93-.82,3.07,3.07,0,0,0,0-4.12A2.64,2.64,0,0,0,349.81,24.92Z"/><path class="cls-2" d="M390.09,12.72H404v2.12l-9.57,19.6L391,32.79l8-16.28h-8.89Z"/><path class="cls-2" d="M447.48,22.42a6.61,6.61,0,0,1,2.1,8.89,5.89,5.89,0,0,1-2.46,2.34,8.56,8.56,0,0,1-3.93.79,9.13,9.13,0,0,1-4.08-.76,5.79,5.79,0,0,1-2.42-2.29,6.71,6.71,0,0,1-.9-3.46,6.45,6.45,0,0,1,.72-3.05,7.44,7.44,0,0,1,2.19-2.46,6.85,6.85,0,0,1-1.44-2.05,5.64,5.64,0,0,1-.48-2.3,5.87,5.87,0,0,1,.8-3,5.52,5.52,0,0,1,2.24-2.12,7.11,7.11,0,0,1,3.33-.75,6.8,6.8,0,0,1,3.27.76,5.58,5.58,0,0,1,2.22,2.17,5.92,5.92,0,0,1,.82,3,5.27,5.27,0,0,1-.43,2.11A8.17,8.17,0,0,1,447.48,22.42Zm-4.31,2.15a3.54,3.54,0,0,0-2.44.89,2.71,2.71,0,0,0-1,2.11,2.86,2.86,0,0,0,.94,2.17,3.42,3.42,0,0,0,2.46.88,3.53,3.53,0,0,0,2.46-.82,2.77,2.77,0,0,0,.91-2.14,2.86,2.86,0,0,0-.95-2.2A3.34,3.34,0,0,0,443.17,24.57ZM443,16.08a2.18,2.18,0,0,0-1.64.65,2.28,2.28,0,0,0-.64,1.67,2.35,2.35,0,0,0,.68,1.71,2.4,2.4,0,0,0,3.35,0,2.45,2.45,0,0,0,.65-1.76,2.18,2.18,0,0,0-.66-1.65A2.38,2.38,0,0,0,443,16.08Z"/><path class="cls-2" d="M489.4,34.44,486,32.74l3.71-7.22a6.2,6.2,0,0,1-4.59-1.92,6.59,6.59,0,0,1-1.89-4.79,6.65,6.65,0,0,1,11.39-4.63,6.44,6.44,0,0,1,1.9,4.58,6.76,6.76,0,0,1-.29,2,20.77,20.77,0,0,1-1.36,3Zm.51-12.73a2.43,2.43,0,0,0,1.88-.82,2.87,2.87,0,0,0,.77-2,2.9,2.9,0,0,0-.8-2.07,2.53,2.53,0,0,0-1.87-.83,2.61,2.61,0,0,0-1.93.83,2.82,2.82,0,0,0-.8,2.06,2.86,2.86,0,0,0,.78,2A2.6,2.6,0,0,0,489.91,21.71Z"/><path class="cls-2" d="M524.59,12.72h6V33.91h-4V16.51h-4.36Z"/><path class="cls-2" d="M544.45,12.19a6.94,6.94,0,0,1,4,1.14A7.14,7.14,0,0,1,551,16.8a18.51,18.51,0,0,1,.92,6.52,18.48,18.48,0,0,1-.93,6.57,7.41,7.41,0,0,1-2.5,3.45,6.78,6.78,0,0,1-4,1.1,7,7,0,0,1-4-1.11A7.23,7.23,0,0,1,538,30a17.79,17.79,0,0,1-.92-6.44c0-3.89.6-6.7,1.8-8.45A6.4,6.4,0,0,1,544.45,12.19Zm.1,3.83a2.77,2.77,0,0,0-1.81.65,4.26,4.26,0,0,0-1.21,2.26,19.58,19.58,0,0,0-.42,4.68q0,4,1,5.55a2.84,2.84,0,0,0,2.48,1.54,2.64,2.64,0,0,0,2.33-1.46q1-1.75,1-5.88T547,17.6A2.78,2.78,0,0,0,544.55,16Z"/><circle class="cls-3" cx="70.66" cy="67.52" r="13.1"/><circle class="cls-3" cx="117.22" cy="67.52" r="13.1"/><circle class="cls-3" cx="163.78" cy="111.98" r="13.1"/><circle class="cls-3" cx="210.34" cy="156.45" r="13.1"/><circle class="cls-3" cx="256.9" cy="156.45" r="13.1"/><circle class="cls-3" cx="303.46" cy="156.45" r="13.1"/><circle class="cls-3" cx="350.02" cy="200.92" r="13.1"/><circle class="cls-3" cx="396.58" cy="200.92" r="13.1"/><circle class="cls-3" cx="443.14" cy="200.92" r="13.1"/><circle class="cls-3" cx="489.7" cy="200.92" r="13.1"/><circle class="cls-3" cx="536.26" cy="200.92" r="13.1"/><path class="cls-4" d="M124.6,119.37h0a1.87,1.87,0,0,1-2.63,0l-4.75-4.76-4.75,4.76a1.87,1.87,0,0,1-2.63,0h0a1.85,1.85,0,0,1,0-2.63l4.75-4.76-4.75-4.75a1.85,1.85,0,0,1,0-2.63h0a1.87,1.87,0,0,1,2.63,0l4.75,4.76L122,104.6a1.87,1.87,0,0,1,2.63,0h0a1.85,1.85,0,0,1,0,2.63L119.85,112l4.75,4.76A1.85,1.85,0,0,1,124.6,119.37Z"/><path class="cls-4" d="M171.16,163.83h0a1.85,1.85,0,0,1-2.63,0l-4.75-4.75L159,163.83a1.85,1.85,0,0,1-2.63,0h0a1.85,1.85,0,0,1,0-2.63l4.75-4.75-4.75-4.75a1.85,1.85,0,0,1,0-2.63h0a1.85,1.85,0,0,1,2.63,0l4.75,4.75,4.75-4.75a1.85,1.85,0,0,1,2.63,0h0a1.85,1.85,0,0,1,0,2.63l-4.75,4.75,4.75,4.75A1.85,1.85,0,0,1,171.16,163.83Z"/><path class="cls-4" d="M264.28,208.3h0a1.87,1.87,0,0,1-2.63,0l-4.75-4.76-4.75,4.76a1.87,1.87,0,0,1-2.63,0h0a1.85,1.85,0,0,1,0-2.63l4.75-4.75-4.75-4.76a1.85,1.85,0,0,1,0-2.63h0a1.87,1.87,0,0,1,2.63,0l4.75,4.76,4.75-4.76a1.87,1.87,0,0,1,2.63,0h0a1.85,1.85,0,0,1,0,2.63l-4.75,4.76,4.75,4.75A1.85,1.85,0,0,1,264.28,208.3Z"/><path class="cls-4" d="M310.84,208.3h0a1.87,1.87,0,0,1-2.63,0l-4.75-4.76-4.75,4.76a1.87,1.87,0,0,1-2.63,0h0a1.85,1.85,0,0,1,0-2.63l4.75-4.75-4.75-4.76a1.85,1.85,0,0,1,0-2.63h0a1.87,1.87,0,0,1,2.63,0l4.75,4.76,4.75-4.76a1.87,1.87,0,0,1,2.63,0h0a1.85,1.85,0,0,1,0,2.63l-4.75,4.76,4.75,4.75A1.85,1.85,0,0,1,310.84,208.3Z"/><rect class="cls-1" x="336.32" y="283.22" width="111.83" height="26.94"/><path class="cls-2" d="M449,311H335.5V282.4H449Zm-111.84-1.64h110.2V284H337.14Z"/><path class="cls-1" d="M112.65,256.28H9.82c-5,0-9,4.59-9,10.24v16.7H112.65Z"/><path class="cls-2" d="M113.47,284H0V266.52c0-6.1,4.41-11.06,9.82-11.06H113.47ZM1.64,282.4H111.83V257.1H9.82c-4.51,0-8.18,4.23-8.18,9.42Z"/><rect class="cls-1" x="112.65" y="256.28" width="111.83" height="26.94"/><path class="cls-2" d="M225.31,284H111.83V255.46H225.31ZM113.47,282.4h110.2V257.1H113.47Z"/><rect class="cls-1" x="224.49" y="256.28" width="111.83" height="26.94"/><path class="cls-2" d="M337.14,284H223.67V255.46H337.14ZM225.31,282.4H335.5V257.1H225.31Z"/><rect class="cls-1" x="336.32" y="256.28" width="111.83" height="26.94"/><path class="cls-2" d="M449,284H335.5V255.46H449ZM337.14,282.4h110.2V257.1H337.14Z"/><rect class="cls-1" x="336.32" y="337.1" width="111.83" height="26.94"/><path class="cls-2" d="M449,364.86H335.5V336.28H449Zm-111.84-1.64h110.2v-25.3H337.14Z"/><rect class="cls-1" x="224.49" y="337.1" width="111.83" height="26.94"/><path class="cls-2" d="M337.14,364.86H223.67V336.28H337.14Zm-111.83-1.64H335.5v-25.3H225.31Z"/><rect class="cls-1" x="112.65" y="283.22" width="111.83" height="26.94"/><path class="cls-2" d="M225.31,311H111.83V282.4H225.31Zm-111.84-1.64h110.2V284H113.47Z"/><rect class="cls-1" x="224.49" y="310.16" width="111.83" height="26.94"/><path class="cls-2" d="M337.14,337.92H223.67V309.34H337.14Zm-111.83-1.64H335.5V311H225.31Z"/><rect class="cls-1" x="224.49" y="283.22" width="111.83" height="26.94"/><path class="cls-2" d="M337.14,311H223.67V282.4H337.14Zm-111.83-1.64H335.5V284H225.31Z"/><rect class="cls-1" x="112.65" y="337.1" width="111.83" height="26.94"/><path class="cls-2" d="M225.31,364.86H111.83V336.28H225.31Zm-111.84-1.64h110.2v-25.3H113.47Z"/><rect class="cls-1" x="112.65" y="310.16" width="111.83" height="26.94"/><path class="cls-2" d="M225.31,337.92H111.83V309.34H225.31Zm-111.84-1.64h110.2V311H113.47Z"/><rect class="cls-1" x="336.32" y="310.16" width="111.83" height="26.94"/><path class="cls-2" d="M449,337.92H335.5V309.34H449Zm-111.84-1.64h110.2V311H337.14Z"/><rect class="cls-1" x="336.32" y="364.04" width="111.83" height="26.94"/><path class="cls-2" d="M449,391.8H335.5V363.22H449Zm-111.84-1.64h110.2v-25.3H337.14Z"/><rect class="cls-1" x="448.16" y="337.1" width="111.83" height="26.94"/><path class="cls-2" d="M560.81,364.86H447.34V336.28H560.81ZM449,363.22H559.17v-25.3H449Z"/><path class="cls-1" d="M448.16,391H551c5,0,9-4.58,9-10.24V364H448.16Z"/><path class="cls-2" d="M551,391.8H447.34V363.22H560.81v17.52C560.81,386.84,556.41,391.8,551,391.8Zm-102-1.64H551c4.51,0,8.18-4.22,8.18-9.42V364.86H449Z"/><rect class="cls-1" x="448.16" y="310.16" width="111.83" height="26.94"/><path class="cls-2" d="M560.81,337.92H447.34V309.34H560.81ZM449,336.28H559.17V311H449Z"/><rect class="cls-1" x="448.16" y="283.22" width="111.83" height="26.94"/><path class="cls-2" d="M560.81,311H447.34V282.4H560.81ZM449,309.34H559.17V284H449Z"/><path class="cls-1" d="M448.16,256.28v26.94H560v-16.7c0-5.65-4-10.24-9-10.24Z"/><path class="cls-2" d="M560.81,284H447.34V255.46H551c5.42,0,9.82,5,9.82,11.06ZM449,282.4H559.17V266.52c0-5.19-3.67-9.42-8.18-9.42H449Z"/><rect class="cls-1" x="224.49" y="364.04" width="111.83" height="26.94"/><path class="cls-2" d="M337.14,391.8H223.67V363.22H337.14Zm-111.83-1.64H335.5v-25.3H225.31Z"/><rect class="cls-1" x="0.82" y="310.16" width="111.83" height="26.94"/><path class="cls-2" d="M113.47,337.92H0V309.34H113.47ZM1.64,336.28H111.83V311H1.64Z"/><rect class="cls-1" x="0.82" y="337.1" width="111.83" height="26.94"/><path class="cls-2" d="M113.47,364.86H0V336.28H113.47ZM1.64,363.22H111.83v-25.3H1.64Z"/><rect class="cls-1" x="0.82" y="283.22" width="111.83" height="26.94"/><path class="cls-2" d="M113.47,311H0V282.4H113.47ZM1.64,309.34H111.83V284H1.64Z"/><rect class="cls-1" x="112.65" y="364.04" width="111.83" height="26.94"/><path class="cls-2" d="M225.31,391.8H111.83V363.22H225.31Zm-111.84-1.64h110.2v-25.3H113.47Z"/><path class="cls-1" d="M.82,364v16.7c0,5.66,4,10.24,9,10.24H112.65V364Z"/><path class="cls-2" d="M113.47,391.8H9.82c-5.41,0-9.82-5-9.82-11.06V363.22H113.47ZM1.64,364.86v15.88c0,5.2,3.67,9.42,8.18,9.42h102v-25.3Z"/><path class="cls-2" d="M136.74,263.45h7.15v2.42h-2.36v10.51H139V265.87h-2.3Z"/><path class="cls-2" d="M151.28,262.88a1.5,1.5,0,0,1,1.09.45,1.54,1.54,0,0,1,.45,1.11,1.48,1.48,0,0,1-.45,1.09,1.42,1.42,0,0,1-1.07.46,1.5,1.5,0,0,1-1.09-.46,1.57,1.57,0,0,1-.45-1.13,1.47,1.47,0,0,1,.45-1.08A1.43,1.43,0,0,1,151.28,262.88Zm-1.2,3.93h2.4v9.57h-2.4Z"/><path class="cls-2" d="M154.66,266.81h2.4v1a5.56,5.56,0,0,1,1.48-1,3.55,3.55,0,0,1,1.36-.27,3.29,3.29,0,0,1,2.41,1,3.38,3.38,0,0,1,.83,2.5v6.32h-2.37v-4.19a11,11,0,0,0-.15-2.28,1.5,1.5,0,0,0-.54-.85,1.47,1.47,0,0,0-.94-.3,1.8,1.8,0,0,0-1.25.49,2.59,2.59,0,0,0-.72,1.35,10.69,10.69,0,0,0-.11,1.94v3.84h-2.4Z"/><path class="cls-2" d="M166.4,262.88a1.47,1.47,0,0,1,1.08.45,1.54,1.54,0,0,1,.45,1.11,1.47,1.47,0,0,1-.44,1.09,1.44,1.44,0,0,1-1.07.46,1.49,1.49,0,0,1-1.09-.46,1.57,1.57,0,0,1-.45-1.13,1.5,1.5,0,0,1,1.52-1.52Zm-1.2,3.93h2.4v9.57h-2.4Z"/><path class="cls-2" d="M179.14,268.75l-2,1.09A3.26,3.26,0,0,0,176,269a3.41,3.41,0,0,0-1.29-.23,3,3,0,0,0-2.18.8,2.76,2.76,0,0,0-.83,2.06,2.65,2.65,0,0,0,.8,2,2.9,2.9,0,0,0,2.11.77,3,3,0,0,0,2.5-1.09l1.9,1.29a5.84,5.84,0,0,1-8.3.51,5,5,0,0,1,1.21-7.9,5.82,5.82,0,0,1,2.78-.66,5.76,5.76,0,0,1,2.56.56A4.89,4.89,0,0,1,179.14,268.75Z"/><path class="cls-2" d="M182.24,262.88a1.47,1.47,0,0,1,1.08.45,1.54,1.54,0,0,1,.45,1.11,1.51,1.51,0,0,1-.44,1.09,1.44,1.44,0,0,1-1.07.46,1.49,1.49,0,0,1-1.09-.46,1.54,1.54,0,0,1-.46-1.13,1.52,1.52,0,0,1,1.53-1.52Zm-1.2,3.93h2.4v9.57H181Z"/><path class="cls-2" d="M192.68,266.81h2.4v9.57h-2.4v-1a4.76,4.76,0,0,1-1.41,1,4,4,0,0,1-1.53.29,4.25,4.25,0,0,1-3.21-1.44,5,5,0,0,1-1.35-3.57,5.13,5.13,0,0,1,1.31-3.63,4.27,4.27,0,0,1,4.79-1.09,4.45,4.45,0,0,1,1.4,1Zm-2.53,2a2.43,2.43,0,0,0-1.85.79,3.14,3.14,0,0,0,0,4.05,2.4,2.4,0,0,0,1.84.8,2.49,2.49,0,0,0,1.88-.78,2.91,2.91,0,0,0,.74-2.06,2.83,2.83,0,0,0-.74-2A2.54,2.54,0,0,0,190.15,268.78Z"/><path class="cls-2" d="M197.24,263.12h2.4v13.26h-2.4Z"/><path class="cls-2" d="M248,263.45h7.14v2.42h-2.35v10.51h-2.5V265.87H248Z"/><path class="cls-2" d="M256,266.81h2V268a2.48,2.48,0,0,1,.89-1.08,2.1,2.1,0,0,1,1.21-.37,2.31,2.31,0,0,1,1,.24l-.75,2.07a1.64,1.64,0,0,0-.69-.21,1.1,1.1,0,0,0-.94.68,6.39,6.39,0,0,0-.38,2.69v4.34H256Z"/><path class="cls-2" d="M269.41,266.81h2.4v9.57h-2.4v-1a4.76,4.76,0,0,1-1.41,1,4,4,0,0,1-1.53.29,4.25,4.25,0,0,1-3.2-1.44,5,5,0,0,1-1.35-3.57,5.16,5.16,0,0,1,1.3-3.63,4.17,4.17,0,0,1,3.18-1.41,4.22,4.22,0,0,1,1.62.32,4.42,4.42,0,0,1,1.39,1Zm-2.52,2a2.41,2.41,0,0,0-1.85.79,2.82,2.82,0,0,0-.73,2,2.88,2.88,0,0,0,.74,2,2.42,2.42,0,0,0,1.85.8,2.47,2.47,0,0,0,1.87-.78,2.87,2.87,0,0,0,.75-2.06,2.8,2.8,0,0,0-.75-2A2.5,2.5,0,0,0,266.89,268.78Z"/><path class="cls-2" d="M276.62,263.12v4.75a4.38,4.38,0,0,1,1.41-1,4.27,4.27,0,0,1,4.79,1.09,5.13,5.13,0,0,1,1.31,3.63,5,5,0,0,1-1.35,3.57,4.25,4.25,0,0,1-3.21,1.44,4.14,4.14,0,0,1-1.54-.29,4.76,4.76,0,0,1-1.41-1v1h-2.38V263.12Zm2.52,5.66a2.53,2.53,0,0,0-1.88.77,2.8,2.8,0,0,0-.75,2,2.87,2.87,0,0,0,.75,2.06,2.5,2.5,0,0,0,1.88.78,2.42,2.42,0,0,0,1.85-.8,2.84,2.84,0,0,0,.75-2,2.78,2.78,0,0,0-.74-2A2.42,2.42,0,0,0,279.14,268.78Z"/><path class="cls-2" d="M293.18,266.81h2.4v9.57h-2.4v-1a4.76,4.76,0,0,1-1.41,1,4,4,0,0,1-1.53.29,4.25,4.25,0,0,1-3.21-1.44,5,5,0,0,1-1.35-3.57A5.17,5.17,0,0,1,287,268a4.27,4.27,0,0,1,4.79-1.09,4.34,4.34,0,0,1,1.4,1Zm-2.52,2a2.4,2.4,0,0,0-1.85.79,3.12,3.12,0,0,0,0,4.05,2.4,2.4,0,0,0,1.84.8,2.49,2.49,0,0,0,1.88-.78,2.86,2.86,0,0,0,.74-2.06,2.79,2.79,0,0,0-.74-2A2.52,2.52,0,0,0,290.66,268.78Z"/><path class="cls-2" d="M297.93,266.81h2.4v9.88a5.81,5.81,0,0,1-.27,2,2.14,2.14,0,0,1-.84,1,2.63,2.63,0,0,1-1.4.36,5.81,5.81,0,0,1-1.79-.36v-1.89a2.31,2.31,0,0,0,1,.27.84.84,0,0,0,.68-.27,1.56,1.56,0,0,0,.23-1Zm1.2-3.93a1.48,1.48,0,0,1,1.09.45,1.52,1.52,0,0,1,.45,1.11,1.51,1.51,0,0,1-2.61,1.08,1.55,1.55,0,0,1-.45-1.12,1.5,1.5,0,0,1,1.52-1.52Z"/><path class="cls-2" d="M307.17,266.57a5.05,5.05,0,0,1,2.54.67,4.84,4.84,0,0,1,1.86,1.84,4.89,4.89,0,0,1,.67,2.51,5,5,0,0,1-.67,2.53,4.9,4.9,0,0,1-1.83,1.84,5.11,5.11,0,0,1-2.56.66,4.79,4.79,0,0,1-3.51-1.46,4.87,4.87,0,0,1-1.46-3.56,5,5,0,0,1,5-5Zm0,2.26a2.44,2.44,0,0,0-1.86.77,2.76,2.76,0,0,0-.75,2,2.83,2.83,0,0,0,.74,2,2.47,2.47,0,0,0,1.86.77,2.5,2.5,0,0,0,1.88-.78,2.84,2.84,0,0,0,.74-2,2.78,2.78,0,0,0-.73-2A2.49,2.49,0,0,0,307.21,268.83Z"/><path class="cls-2" d="M366.89,263.45H374v2.42h-2.36v10.51h-2.5V265.87h-2.29Z"/><path class="cls-2" d="M380.79,263.29h2.39v3.52h1.43v2.07h-1.43v7.5h-2.39v-7.5h-1.24v-2.07h1.24Z"/><path class="cls-2" d="M390.38,266.57a5.09,5.09,0,0,1,2.55.67,5,5,0,0,1,1.85,6.88A4.9,4.9,0,0,1,393,276a5.09,5.09,0,0,1-2.56.66,4.79,4.79,0,0,1-3.51-1.46,4.86,4.86,0,0,1-1.45-3.56,5,5,0,0,1,4.95-5Zm0,2.26a2.47,2.47,0,0,0-1.86.77,2.76,2.76,0,0,0-.74,2,2.83,2.83,0,0,0,.73,2,2.64,2.64,0,0,0,3.74,0,3.08,3.08,0,0,0,0-4A2.48,2.48,0,0,0,390.42,268.83Z"/><path class="cls-2" d="M397.7,263.29h2.4v3.52h1.43v2.07H400.1v7.5h-2.4v-7.5h-1.23v-2.07h1.23Z"/><path class="cls-2" d="M409.87,266.81h2.4v9.57h-2.4v-1a4.76,4.76,0,0,1-1.41,1,4,4,0,0,1-1.53.29,4.25,4.25,0,0,1-3.21-1.44,5,5,0,0,1-1.35-3.57,5.17,5.17,0,0,1,1.31-3.63,4.27,4.27,0,0,1,4.79-1.09,4.34,4.34,0,0,1,1.4,1Zm-2.52,2a2.4,2.4,0,0,0-1.85.79,3.12,3.12,0,0,0,0,4.05,2.4,2.4,0,0,0,1.84.8,2.49,2.49,0,0,0,1.88-.78,2.86,2.86,0,0,0,.74-2.06,2.79,2.79,0,0,0-.74-2A2.52,2.52,0,0,0,407.35,268.78Z"/><path class="cls-2" d="M414.43,263.12h2.4v13.26h-2.4Z"/><path class="cls-2" d="M476.4,263.45h7.06v2.4h-4.62v2.34h4.62v2.37h-4.62V274h4.62v2.42H476.4Z"/><path class="cls-2" d="M491.34,268.15l-1.49,1.48a2.52,2.52,0,0,0-1.64-.89,1,1,0,0,0-.63.17.52.52,0,0,0-.23.43.56.56,0,0,0,.14.35,2.82,2.82,0,0,0,.72.45l.88.43A5.28,5.28,0,0,1,491,272a2.91,2.91,0,0,1-.42,3.8,3.57,3.57,0,0,1-2.51.85,4,4,0,0,1-3.34-1.63l1.48-1.61a3.29,3.29,0,0,0,1,.79,2.08,2.08,0,0,0,1,.31,1.24,1.24,0,0,0,.77-.23.67.67,0,0,0,.29-.53q0-.56-1.05-1.08l-.81-.4c-1.54-.78-2.32-1.76-2.32-2.93a2.53,2.53,0,0,1,.88-1.94,3.15,3.15,0,0,1,2.23-.8,4,4,0,0,1,1.76.4A4,4,0,0,1,491.34,268.15Z"/><path class="cls-2" d="M495.79,266.81v1.06a4.45,4.45,0,0,1,1.4-1,4.22,4.22,0,0,1,1.62-.32A4.17,4.17,0,0,1,502,268a5.13,5.13,0,0,1,1.31,3.63,5,5,0,0,1-1.35,3.57,4.25,4.25,0,0,1-3.21,1.44,4.14,4.14,0,0,1-1.54-.29,4.76,4.76,0,0,1-1.41-1v4.51h-2.38V266.81Zm2.52,2a2.52,2.52,0,0,0-1.88.77,2.8,2.8,0,0,0-.75,2,2.87,2.87,0,0,0,.75,2.06,2.49,2.49,0,0,0,1.88.78,2.42,2.42,0,0,0,1.85-.8,2.84,2.84,0,0,0,.75-2,2.78,2.78,0,0,0-.74-2A2.42,2.42,0,0,0,498.31,268.78Z"/><path class="cls-2" d="M514.87,272.29h-7.71a2.56,2.56,0,0,0,.89,1.62,2.82,2.82,0,0,0,1.85.6,3.17,3.17,0,0,0,2.31-.94l2,.95a4.82,4.82,0,0,1-1.82,1.59,5.66,5.66,0,0,1-2.5.51,5,5,0,0,1-3.67-1.42,4.82,4.82,0,0,1-1.41-3.55,5,5,0,0,1,1.41-3.64,4.75,4.75,0,0,1,3.54-1.44,4.92,4.92,0,0,1,3.67,1.44,5.22,5.22,0,0,1,1.42,3.82Zm-2.4-1.89a2.4,2.4,0,0,0-.94-1.3,2.68,2.68,0,0,0-1.62-.5,2.83,2.83,0,0,0-1.76.56,3.09,3.09,0,0,0-.88,1.24Z"/><path class="cls-2" d="M516.25,266.81h2V268a2.55,2.55,0,0,1,.89-1.08,2.14,2.14,0,0,1,1.22-.37,2.27,2.27,0,0,1,1,.24l-.75,2.07a1.64,1.64,0,0,0-.69-.21,1.11,1.11,0,0,0-.94.68,6.39,6.39,0,0,0-.38,2.69v4.34h-2.38Z"/><path class="cls-2" d="M529.62,266.81H532v9.57h-2.4v-1a4.6,4.6,0,0,1-1.4,1,4.1,4.1,0,0,1-1.54.29,4.25,4.25,0,0,1-3.2-1.44,5,5,0,0,1-1.35-3.57,5.13,5.13,0,0,1,1.31-3.63,4.27,4.27,0,0,1,4.79-1.09,4.31,4.31,0,0,1,1.39,1Zm-2.52,2a2.43,2.43,0,0,0-1.85.79,3.14,3.14,0,0,0,0,4.05,2.4,2.4,0,0,0,1.84.8,2.5,2.5,0,0,0,1.88-.78,2.91,2.91,0,0,0,.74-2.06,2.83,2.83,0,0,0-.74-2A2.54,2.54,0,0,0,527.1,268.78Z"/><path class="cls-2" d="M55.5,290.39H58l5,12.92H60.41l-1-2.66H54.12l-1,2.66H50.51Zm1.26,3.42L55,298.25h3.46Z"/><path class="cls-2" d="M53,330.25V317.33h2a10.7,10.7,0,0,1,2.58.22,3.48,3.48,0,0,1,1.85,1.15,3,3,0,0,1,.69,2,2.88,2.88,0,0,1-.32,1.34,3.38,3.38,0,0,1-1,1.13,4,4,0,0,1,1.72,1.38,3.44,3.44,0,0,1,.55,2,3.64,3.64,0,0,1-.57,2,3.52,3.52,0,0,1-1.45,1.34,5.51,5.51,0,0,1-2.45.44Zm2.46-10.58v2.73H56a2,2,0,0,0,1.34-.38,1.29,1.29,0,0,0,.43-1,1.19,1.19,0,0,0-.41-1,1.89,1.89,0,0,0-1.26-.36Zm0,4.92v3.32h.62a3.81,3.81,0,0,0,2.07-.39,1.31,1.31,0,0,0,.53-1.12,1.57,1.57,0,0,0-.63-1.32,3.45,3.45,0,0,0-2.08-.49Z"/><path class="cls-2" d="M64,346.54l-1.73,1.64a5.31,5.31,0,0,0-3.95-1.86,4.34,4.34,0,0,0-4.39,4.39,4.69,4.69,0,0,0,.56,2.3,4.07,4.07,0,0,0,1.59,1.57,4.92,4.92,0,0,0,4.24.17,6.69,6.69,0,0,0,1.95-1.45L63.93,355a9.11,9.11,0,0,1-2.7,1.94,7.4,7.4,0,0,1-2.91.54,6.72,6.72,0,0,1-4.94-1.91,6.63,6.63,0,0,1-1.92-4.9,6.74,6.74,0,0,1,.87-3.44,6.57,6.57,0,0,1,2.51-2.42,7.07,7.07,0,0,1,3.51-.91,7.51,7.51,0,0,1,5.64,2.6Z"/><path class="cls-2" d="M51.92,371.2h2.92a9.72,9.72,0,0,1,4.19.7,5.53,5.53,0,0,1,2.25,2.27,7.95,7.95,0,0,1,.39,6.43,5.6,5.6,0,0,1-1.37,2.07,4.82,4.82,0,0,1-1.89,1.15,13.56,13.56,0,0,1-3.53.31h-3Zm2.44,2.38v8.15h1.15a5.91,5.91,0,0,0,2.45-.38A3,3,0,0,0,59.2,380a4.8,4.8,0,0,0,.48-2.25,4.26,4.26,0,0,0-1.15-3.19,4.61,4.61,0,0,0-3.33-1Z"/><path class="cls-3" d="M168.08,290.06a4.22,4.22,0,0,1,2.44.7,4.39,4.39,0,0,1,1.58,2.12,11.31,11.31,0,0,1,.56,4,11.18,11.18,0,0,1-.57,4,4.5,4.5,0,0,1-1.52,2.11,4.11,4.11,0,0,1-2.42.67,4.26,4.26,0,0,1-2.45-.68,4.44,4.44,0,0,1-1.56-2,10.92,10.92,0,0,1-.56-3.93,9.35,9.35,0,0,1,1.1-5.16A3.91,3.91,0,0,1,168.08,290.06Zm.06,2.34a1.67,1.67,0,0,0-1.11.4,2.6,2.6,0,0,0-.74,1.37A12.15,12.15,0,0,0,166,297a6.9,6.9,0,0,0,.58,3.39,1.75,1.75,0,0,0,1.52.93,1.6,1.6,0,0,0,1.42-.88,7.49,7.49,0,0,0,.64-3.59,7.36,7.36,0,0,0-.58-3.51A1.69,1.69,0,0,0,168.14,292.4Z"/><path class="cls-3" d="M166,317.33h3.68v12.92h-2.44V319.64h-2.66Z"/><path class="cls-3" d="M167.12,348.43h-2.4a4.78,4.78,0,0,1,1.32-3.29,4.63,4.63,0,0,1,5.2-.7,3.66,3.66,0,0,1,1.44,1.43,3.76,3.76,0,0,1,.54,1.9,5.7,5.7,0,0,1-.65,2.48,13.62,13.62,0,0,1-2.4,3.14l-1.45,1.53h4.61v2.27h-9V356l4-4.08a11.77,11.77,0,0,0,1.93-2.36,3.48,3.48,0,0,0,.48-1.61,1.67,1.67,0,0,0-.5-1.24,1.72,1.72,0,0,0-1.28-.49,1.7,1.7,0,0,0-1.31.59A2.44,2.44,0,0,0,167.12,348.43Z"/><path class="cls-3" d="M169,370.88h2.46v8.32h1.15v2.28H171.5v2.65h-2.41v-2.65h-5.64V379.2Zm.05,8.32v-4.33l-3,4.33Z"/><path class="cls-3" d="M278.05,294.55h-2.4a4.73,4.73,0,0,1,1.31-3.29,4.64,4.64,0,0,1,5.21-.7,4,4,0,0,1,2,3.33,5.58,5.58,0,0,1-.66,2.48,13.25,13.25,0,0,1-2.39,3.14L279.65,301h4.6v2.27H275.3v-1.17l4-4.08a12.14,12.14,0,0,0,1.93-2.36,3.48,3.48,0,0,0,.48-1.61,1.68,1.68,0,0,0-.5-1.24,1.77,1.77,0,0,0-1.28-.49,1.7,1.7,0,0,0-1.32.59A2.44,2.44,0,0,0,278.05,294.55Z"/><path class="cls-3" d="M277.87,317.33h3.69v12.92h-2.45V319.64h-2.66Z"/><path class="cls-3" d="M279.24,347.46h-2.37a3.85,3.85,0,0,1,4-3.52,3.78,3.78,0,0,1,2.67,1,3.17,3.17,0,0,1,1.08,2.4,2.81,2.81,0,0,1-.47,1.57,3.33,3.33,0,0,1-1.37,1.15,3.51,3.51,0,0,1,1.84,1.23,3.33,3.33,0,0,1,.67,2.06,3.88,3.88,0,0,1-1.29,2.95,4.54,4.54,0,0,1-3.27,1.21,4.23,4.23,0,0,1-3.06-1.14,4.45,4.45,0,0,1-1.3-3.1h2.43a2.46,2.46,0,0,0,.7,1.49,2.13,2.13,0,0,0,2.79-.06,1.86,1.86,0,0,0-.19-2.84,3.59,3.59,0,0,0-2.21-.63v-2.11a3.77,3.77,0,0,0,1.32-.27,1.67,1.67,0,0,0,.68-.57,1.34,1.34,0,0,0,.24-.76,1.13,1.13,0,0,0-.37-.88,1.35,1.35,0,0,0-1-.35,1.51,1.51,0,0,0-1,.33A1.54,1.54,0,0,0,279.24,347.46Z"/><path class="cls-3" d="M277.92,371.2H284v2.28h-4.22l-.52,2.35.43-.1.4,0a3.89,3.89,0,0,1,2.92,1.2,4.23,4.23,0,0,1,1.17,3.08,4.32,4.32,0,0,1-1.29,3.18,4.23,4.23,0,0,1-3.13,1.3,4.34,4.34,0,0,1-4.4-3.52h2.59a2.18,2.18,0,0,0,.79.92,1.91,1.91,0,0,0,1.07.31,1.83,1.83,0,0,0,1.39-.59,2.29,2.29,0,0,0,0-3,1.71,1.71,0,0,0-1.29-.58,1.64,1.64,0,0,0-.79.21,2.74,2.74,0,0,0-.77.6l-2-.45Z"/><path class="cls-3" d="M389.88,294.55h-2.39a4.73,4.73,0,0,1,1.31-3.29,4.63,4.63,0,0,1,5.2-.7,4,4,0,0,1,2,3.33,5.56,5.56,0,0,1-.65,2.48,13.62,13.62,0,0,1-2.4,3.14L391.48,301h4.61v2.27h-9v-1.17l4-4.08a11.77,11.77,0,0,0,1.93-2.36,3.48,3.48,0,0,0,.48-1.61,1.64,1.64,0,0,0-.5-1.24,1.75,1.75,0,0,0-1.27-.49,1.7,1.7,0,0,0-1.32.59A2.5,2.5,0,0,0,389.88,294.55Z"/><path class="cls-3" d="M389.88,321.49h-2.39a4.73,4.73,0,0,1,1.31-3.29,4.63,4.63,0,0,1,5.2-.7,3.66,3.66,0,0,1,1.44,1.43,3.76,3.76,0,0,1,.54,1.9,5.56,5.56,0,0,1-.65,2.48,13.62,13.62,0,0,1-2.4,3.14L391.48,328h4.61v2.27h-9v-1.17l4-4.08a11.77,11.77,0,0,0,1.93-2.36,3.48,3.48,0,0,0,.48-1.61,1.64,1.64,0,0,0-.5-1.24,1.75,1.75,0,0,0-1.27-.49,1.7,1.7,0,0,0-1.32.59A2.5,2.5,0,0,0,389.88,321.49Z"/><path class="cls-3" d="M393.62,343.94h2.45v8.32h1.16v2.28h-1.16v2.65h-2.4v-2.65H388v-2.28Zm.05,8.32v-4.33l-3,4.33Z"/><path class="cls-3" d="M387.83,371.2h8.48v1.3l-5.84,12-2.08-1,4.86-9.93h-5.42Z"/><path class="cls-4" d="M503.58,290.06a4.17,4.17,0,0,1,2.44.7,4.39,4.39,0,0,1,1.58,2.12,11.08,11.08,0,0,1,.56,4,11.45,11.45,0,0,1-.56,4,4.51,4.51,0,0,1-1.53,2.11,4.09,4.09,0,0,1-2.42.67,4.26,4.26,0,0,1-2.45-.68,4.36,4.36,0,0,1-1.55-2,10.67,10.67,0,0,1-.57-3.93,9.35,9.35,0,0,1,1.1-5.16A3.93,3.93,0,0,1,503.58,290.06Zm.06,2.34a1.64,1.64,0,0,0-1.1.4,2.54,2.54,0,0,0-.74,1.37,12.05,12.05,0,0,0-.26,2.86,6.88,6.88,0,0,0,.59,3.39,1.73,1.73,0,0,0,1.51.93,1.59,1.59,0,0,0,1.42-.88,7.37,7.37,0,0,0,.64-3.59,7.51,7.51,0,0,0-.57-3.51A1.7,1.7,0,0,0,503.64,292.4Z"/><path class="cls-4" d="M501.54,317.33h3.69v12.92h-2.45V319.64h-2.66Z"/><path class="cls-4" d="M502.45,344.26h3.68v12.93h-2.44V346.58H501Z"/><path class="cls-4" d="M501.72,375.37h-2.4a4.73,4.73,0,0,1,1.31-3.29,4.67,4.67,0,0,1,5.21-.71,4,4,0,0,1,2,3.34,5.62,5.62,0,0,1-.66,2.48,13.45,13.45,0,0,1-2.39,3.14l-1.45,1.53h4.6v2.27H499V383l4-4.07a12.14,12.14,0,0,0,1.93-2.36,3.51,3.51,0,0,0,.48-1.62,1.66,1.66,0,0,0-.5-1.23,1.73,1.73,0,0,0-1.28-.49,1.7,1.7,0,0,0-1.32.59A2.44,2.44,0,0,0,501.72,375.37Z"/></g></g></svg>