<svg xmlns="http://www.w3.org/2000/svg" viewBox="0 0 553.15 553.15"><defs><style>.cls-1{fill:#a0c5e5;}</style></defs><g id="Capa_2" data-name="Capa 2"><g id="Capa_1-2" data-name="Capa 1"><path class="cls-1" d="M472.15,81A276.58,276.58,0,1,0,81,472.15,276.58,276.58,0,0,0,472.15,81ZM276.58,513.15c-25.48,0-51.61-23.33-71.71-64A277.31,277.31,0,0,1,192.56,420c26.58-2.33,54.95-3.57,84-3.57s57.44,1.24,84,3.57a277.29,277.29,0,0,1-12.3,29.2C328.19,489.82,302.05,513.15,276.58,513.15Zm0-136.77c-33,0-65.3,1.57-95.41,4.5a453.48,453.48,0,0,1-11-84.3H383a454.32,454.32,0,0,1-11,84.3C341.88,378,309.58,376.38,276.58,376.38Zm0-336.38c25.47,0,51.61,23.33,71.71,64a276.4,276.4,0,0,1,12.3,29.2c-26.57,2.32-54.95,3.56-84,3.56s-57.44-1.24-84-3.56A276.42,276.42,0,0,1,204.87,104C225,63.33,251.1,40,276.58,40Zm0,136.77c33,0,65.3-1.57,95.41-4.49a454.21,454.21,0,0,1,11,84.3H170.21a454.22,454.22,0,0,1,10.95-84.3C211.28,175.2,243.58,176.77,276.58,176.77ZM130.17,256.58H40.85A234.88,234.88,0,0,1,74.68,153.39c19.18,5.61,41.74,10.33,66.61,14A499.29,499.29,0,0,0,130.17,256.58Zm0,40a499.29,499.29,0,0,0,11.12,89.15c-24.87,3.7-47.43,8.43-66.61,14A234.88,234.88,0,0,1,40.85,296.58Zm292.81,0H512.3a235,235,0,0,1-33.82,103.18c-19.18-5.6-41.75-10.33-66.62-14A497.47,497.47,0,0,0,423,296.58Zm0-40a497.47,497.47,0,0,0-11.12-89.16c24.87-3.7,47.44-8.42,66.62-14A235,235,0,0,1,512.3,256.58ZM452.79,118.9c-15.4,3.79-32.74,7-51.51,9.7a323.88,323.88,0,0,0-17.13-42.31,242.06,242.06,0,0,0-16-27.86A237.62,237.62,0,0,1,452.79,118.9ZM185.05,58.43a242,242,0,0,0-16,27.86,323.88,323.88,0,0,0-17.13,42.31c-18.77-2.65-36.11-5.91-51.51-9.7A237.5,237.5,0,0,1,185.05,58.43ZM100.37,434.25c15.4-3.79,32.74-7,51.51-9.7A323.31,323.31,0,0,0,169,466.86a242.2,242.2,0,0,0,16,27.87A237.65,237.65,0,0,1,100.37,434.25ZM368.1,494.73a242.22,242.22,0,0,0,16-27.87,323.31,323.31,0,0,0,17.13-42.31c18.77,2.66,36.11,5.91,51.51,9.7A237.77,237.77,0,0,1,368.1,494.73Z"/></g></g></svg>