<svg xmlns="http://www.w3.org/2000/svg" viewBox="0 0 720 720"><defs><style>.cls-1{fill:#a0c5e5;}</style></defs><g id="Capa_3" data-name="Capa 3"><path class="cls-1" d="M692,93.8,625.76,27.58C608.42,10.25,585,0,560.5,0A90.48,90.48,0,0,0,496,26.68L442.6,80.11,123.33,399.38a207.19,207.19,0,0,0-51.39,85.15L1.66,711.25a6.74,6.74,0,0,0,8.51,8.41l225.36-72.77a207.16,207.16,0,0,0,82.84-50.66L638.54,276.06h0L692,222.62A91.09,91.09,0,0,0,692,93.8ZM258.42,573.55,145.11,460.23a11.23,11.23,0,0,1,0-15.89L451.34,138.11a11.23,11.23,0,0,1,15.89,0L580.55,251.42a11.25,11.25,0,0,1,0,15.89L274.31,573.55A11.25,11.25,0,0,1,258.42,573.55ZM126.26,508.12l84.8,84.81a11.23,11.23,0,0,1-4.09,18.5L66.6,662.68a6.74,6.74,0,0,1-8.68-8.56l49.79-141.77A11.24,11.24,0,0,1,126.26,508.12ZM658,189.9l-36,36a.21.21,0,0,1-.28,0L492.8,96.94a.21.21,0,0,1,0-.29l36.61-36.6A43.55,43.55,0,0,1,561.1,47.2a45.06,45.06,0,0,1,31,13.5l66.48,66.47a43.67,43.67,0,0,1,12.85,31.7A45.11,45.11,0,0,1,658,189.9Z"/></g></svg>