<svg xmlns="http://www.w3.org/2000/svg" viewBox="0 0 989.28 520.29"><defs><style>.cls-1{fill:#e96862;}.cls-2{fill:#91ff4a;}.cls-3{fill:#baff8d;}.cls-4{fill:#74727e;}.cls-5{fill:#494951;}.cls-6{fill:#ded7d3;}.cls-7{fill:#9b9b9b;}.cls-8{fill:#bcb8b7;}.cls-9{fill:#545266;}.cls-10{fill:#9e9bba;}.cls-11{fill:#446b65;}.cls-12{fill:#403933;}.cls-13{fill:#e2e2e2;}.cls-14{fill:#a08d3d;}</style></defs><g id="Capa_2" data-name="Capa 2"><g id="Capa_1-2" data-name="Capa 1"><ellipse class="cls-1" cx="140.44" cy="484.78" rx="140.44" ry="35.51"/><rect class="cls-1" y="186.96" width="280.88" height="297.83"/><ellipse class="cls-2" cx="140.44" cy="186.96" rx="140.44" ry="35.51"/><rect class="cls-2" y="35.51" width="280.88" height="151.45"/><ellipse class="cls-3" cx="140.44" cy="35.51" rx="140.44" ry="35.51"/><polygon class="cls-2" points="427.96 111.23 369.6 144.93 369.6 77.53 427.96 111.23"/><polygon class="cls-1" points="427.96 353.62 369.6 387.32 369.6 319.93 427.96 353.62"/><path class="cls-4" d="M699.26,439.14h-199V299.39a8.3,8.3,0,0,1,8.29-8.3H691a8.3,8.3,0,0,1,8.29,8.3Z"/><path class="cls-5" d="M690,482.82H509.55a9.3,9.3,0,0,1-9.3-9.3V439.14h199v34.38A9.3,9.3,0,0,1,690,482.82Z"/><ellipse class="cls-6" cx="599.76" cy="339.63" rx="95.87" ry="44.9"/><path class="cls-7" d="M624.88,334.24c-4.37-4.45-14-7.55-25.12-7.55s-20.76,3.1-25.13,7.55h-2.51v5.39c0,7.15,12.37,12.95,27.64,12.95s27.63-5.8,27.63-12.95v-5.39Z"/><ellipse class="cls-8" cx="599.76" cy="334.24" rx="27.64" ry="12.94"/><path class="cls-9" d="M633.33,391.41c13,0,47.33-21.59,51-12.5s18.2,38.26-6.88,42.8-78.47,10.61-83.33,0,.81-25,13.76-27.27S621.2,391.41,633.33,391.41Z"/><path class="cls-10" d="M552.84,394.64c-9-1.7-41.26-27.5-40.86-12.94s8.5,30.74,16.18,35.6,37.76,7.68,44,1.61S569.82,397.88,552.84,394.64Z"/><path class="cls-1" d="M505.71,244.58h4.8l6,18,6-18h4.79l4.34,25.85h-4.76l-2.77-16.33-5.49,16.33h-4.34l-5.45-16.33L506,270.43h-4.79Z"/><path class="cls-1" d="M554.23,262.26H538.82a5.08,5.08,0,0,0,1.78,3.24,5.57,5.57,0,0,0,3.7,1.21,6.4,6.4,0,0,0,4.62-1.88l4.05,1.9a9.63,9.63,0,0,1-3.62,3.17,11.43,11.43,0,0,1-5,1,9.9,9.9,0,0,1-7.33-2.84,9.64,9.64,0,0,1-2.83-7.11,10,10,0,0,1,2.82-7.27,9.46,9.46,0,0,1,7.07-2.89,9.83,9.83,0,0,1,7.35,2.89,10.44,10.44,0,0,1,2.83,7.64Zm-4.8-3.78a4.78,4.78,0,0,0-1.87-2.6,5.42,5.42,0,0,0-3.25-1,5.73,5.73,0,0,0-3.52,1.12,6.35,6.35,0,0,0-1.76,2.48Z"/><path class="cls-1" d="M558.08,251.31h4.8v2.2a7.84,7.84,0,0,1,6-2.69,6,6,0,0,1,3.23.88,6.31,6.31,0,0,1,2.33,2.56,7.57,7.57,0,0,1,6.43-3.44,6.66,6.66,0,0,1,3.59,1,5.51,5.51,0,0,1,2.23,2.47,13.29,13.29,0,0,1,.68,5v11.21h-4.84v-9.7c0-2.17-.27-3.63-.81-4.4a2.75,2.75,0,0,0-2.42-1.15,3.68,3.68,0,0,0-2.21.7,4.21,4.21,0,0,0-1.45,1.94,12,12,0,0,0-.47,4v8.63h-4.84v-9.26a12.79,12.79,0,0,0-.38-3.72,3.37,3.37,0,0,0-1.13-1.71,3,3,0,0,0-1.84-.56,3.57,3.57,0,0,0-2.17.71,4.22,4.22,0,0,0-1.46,2,12.18,12.18,0,0,0-.49,4.05v8.5h-4.8Z"/><path class="cls-1" d="M600.94,250.82a10.18,10.18,0,0,1,5.09,1.35,9.94,9.94,0,0,1,5.05,8.68,10.12,10.12,0,0,1-1.34,5.07,9.75,9.75,0,0,1-3.67,3.68,10.17,10.17,0,0,1-5.11,1.33,9.55,9.55,0,0,1-7-2.93,10.13,10.13,0,0,1,.38-14.58A9.57,9.57,0,0,1,600.94,250.82Zm.08,4.51a5,5,0,0,0-3.73,1.56,5.52,5.52,0,0,0-1.48,4,5.61,5.61,0,0,0,1.47,4,4.88,4.88,0,0,0,3.72,1.55,5,5,0,0,0,3.75-1.56,6.17,6.17,0,0,0,0-8A5,5,0,0,0,601,255.33Z"/><path class="cls-1" d="M613.88,251.31H618v2.41a5.13,5.13,0,0,1,1.77-2.16,4.24,4.24,0,0,1,2.43-.74,4.46,4.46,0,0,1,1.95.49l-1.49,4.13a3.36,3.36,0,0,0-1.39-.42,2.2,2.2,0,0,0-1.87,1.37c-.51.91-.77,2.71-.77,5.38l0,.93v7.73h-4.76Z"/><path class="cls-1" d="M628.39,243.43a2.93,2.93,0,0,1,2.16.92,3,3,0,0,1,.9,2.21,3,3,0,0,1-.89,2.19,2.89,2.89,0,0,1-2.14.91,2.93,2.93,0,0,1-2.18-.93,3.08,3.08,0,0,1-.9-2.24,3.06,3.06,0,0,1,3-3.06Zm-2.4,7.88h4.8v19.12H626Z"/><path class="cls-1" d="M649.26,251.31h4.8v19.12h-4.8v-2a9.48,9.48,0,0,1-2.82,1.93,7.91,7.91,0,0,1-3.06.59,8.5,8.5,0,0,1-6.41-2.88,10,10,0,0,1-2.7-7.14,10.27,10.27,0,0,1,2.61-7.26,8.33,8.33,0,0,1,6.36-2.83,8,8,0,0,1,3.23.65,8.62,8.62,0,0,1,2.79,1.95Zm-5,3.94a4.84,4.84,0,0,0-3.7,1.57,6.28,6.28,0,0,0,0,8.11,4.81,4.81,0,0,0,3.68,1.6A4.93,4.93,0,0,0,648,265a5.72,5.72,0,0,0,1.49-4.12,5.58,5.58,0,0,0-1.49-4A5,5,0,0,0,644.22,255.25Z"/><path class="cls-1" d="M666.94,251.31h4.89l4.83,11.28,4.82-11.28h4.86l-8.14,19.12h-3.11Z"/><path class="cls-1" d="M691,243.43a2.93,2.93,0,0,1,2.16.92,3,3,0,0,1,.9,2.21,3,3,0,0,1-.89,2.19,2.89,2.89,0,0,1-2.14.91,2.93,2.93,0,0,1-2.18-.93,3.08,3.08,0,0,1-.9-2.24,3,3,0,0,1,.89-2.16A3,3,0,0,1,691,243.43Zm-2.4,7.88h4.8v19.12h-4.8Z"/><path class="cls-1" d="M696.65,251.31h4.11v2.41a5.14,5.14,0,0,1,1.78-2.16,4.24,4.24,0,0,1,2.43-.74,4.46,4.46,0,0,1,1.95.49l-1.5,4.13A3.28,3.28,0,0,0,704,255a2.21,2.21,0,0,0-1.87,1.37c-.51.91-.76,2.71-.76,5.38v8.66h-4.76Z"/><path class="cls-1" d="M709.87,244.26h4.8v7.05h2.85v4.13h-2.85v15h-4.8v-15h-2.46v-4.13h2.46Z"/><path class="cls-1" d="M720.07,251.31h4.85v9.21a12.7,12.7,0,0,0,.37,3.74,3.23,3.23,0,0,0,1.19,1.62,3.36,3.36,0,0,0,2,.58,3.55,3.55,0,0,0,2-.57,3.33,3.33,0,0,0,1.24-1.68,12.85,12.85,0,0,0,.3-3.53v-9.37h4.8v8.1q0,5-.79,6.86a7.45,7.45,0,0,1-2.85,3.45,8.65,8.65,0,0,1-4.78,1.21,8.47,8.47,0,0,1-5.09-1.41,7.46,7.46,0,0,1-2.73-3.92,23.58,23.58,0,0,1-.56-6.33Z"/><path class="cls-1" d="M755.8,251.31h4.8v19.12h-4.8v-2a9.23,9.23,0,0,1-2.82,1.93,7.91,7.91,0,0,1-3.06.59,8.5,8.5,0,0,1-6.41-2.88,10,10,0,0,1-2.7-7.14,10.27,10.27,0,0,1,2.61-7.26,8.35,8.35,0,0,1,6.36-2.83,8,8,0,0,1,3.23.65,8.62,8.62,0,0,1,2.79,1.95Zm-5,3.94a4.84,4.84,0,0,0-3.7,1.57,6.28,6.28,0,0,0,0,8.11,4.81,4.81,0,0,0,3.68,1.6,4.93,4.93,0,0,0,3.75-1.57,5.72,5.72,0,0,0,1.49-4.12,5.58,5.58,0,0,0-1.49-4A5,5,0,0,0,750.76,255.25Z"/><path class="cls-1" d="M764.92,243.93h4.8v26.5h-4.8Z"/><path class="cls-11" d="M989.28,153.43h-489V74.15a10.51,10.51,0,0,1,10.52-10.51h468a10.5,10.5,0,0,1,10.51,10.51Z"/><rect class="cls-12" x="670.95" y="90.13" width="41.26" height="47.73" rx="5.76"/><rect class="cls-12" x="620.79" y="90.13" width="41.26" height="47.73" rx="5.76"/><rect class="cls-13" x="520.48" y="90.13" width="80.9" height="47.73" rx="5.76"/><rect class="cls-12" x="831.53" y="90.13" width="41.26" height="47.73" rx="5.76"/><rect class="cls-12" x="781.37" y="90.13" width="41.26" height="47.73" rx="5.76"/><rect class="cls-12" x="934.27" y="90.13" width="41.26" height="47.73" rx="5.76"/><rect class="cls-12" x="884.12" y="90.13" width="41.26" height="47.73" rx="5.76"/><path class="cls-14" d="M760.75,153.43H989.28v6.89a4,4,0,0,1-4,4H764.78a4,4,0,0,1-4-4Z"/><path class="cls-14" d="M500.25,153.43H728.79v6.89a4,4,0,0,1-4,4H504.29a4,4,0,0,1-4-4Z"/><path class="cls-2" d="M505.71,18.26h4.8l6,18,6-18h4.79l4.34,25.86h-4.76l-2.77-16.33-5.49,16.33h-4.34l-5.45-16.33L506,44.12h-4.79Z"/><path class="cls-2" d="M554.23,36H538.82a5.08,5.08,0,0,0,1.78,3.24,5.62,5.62,0,0,0,3.7,1.2,6.36,6.36,0,0,0,4.62-1.88l4.05,1.9a9.54,9.54,0,0,1-3.62,3.17,11.29,11.29,0,0,1-5,1A9.86,9.86,0,0,1,537,41.77a9.64,9.64,0,0,1-2.83-7.11A10,10,0,0,1,537,27.39a9.5,9.5,0,0,1,7.07-2.89,9.87,9.87,0,0,1,7.35,2.89A10.45,10.45,0,0,1,554.25,35Zm-4.8-3.78a4.74,4.74,0,0,0-1.87-2.6,5.43,5.43,0,0,0-3.25-1,5.74,5.74,0,0,0-3.52,1.13A6.28,6.28,0,0,0,539,32.17Z"/><path class="cls-2" d="M558.08,25h4.8v2.19a8.22,8.22,0,0,1,2.74-2,8,8,0,0,1,3.28-.67,6.14,6.14,0,0,1,3.23.88A6.34,6.34,0,0,1,574.46,28a7.54,7.54,0,0,1,6.43-3.45,6.75,6.75,0,0,1,3.59.95,5.54,5.54,0,0,1,2.23,2.48,13.29,13.29,0,0,1,.68,5V44.12h-4.84v-9.7q0-3.26-.81-4.41a2.77,2.77,0,0,0-2.42-1.15,3.69,3.69,0,0,0-2.21.71,4.11,4.11,0,0,0-1.45,1.94,12,12,0,0,0-.47,4v8.63h-4.84V34.86a12.79,12.79,0,0,0-.38-3.72,3.33,3.33,0,0,0-1.13-1.71,3,3,0,0,0-1.84-.57,3.64,3.64,0,0,0-2.17.71,4.25,4.25,0,0,0-1.46,2,12.11,12.11,0,0,0-.49,4v8.51h-4.8Z"/><path class="cls-2" d="M600.94,24.5A10.09,10.09,0,0,1,606,25.86a9.69,9.69,0,0,1,3.71,3.67,9.8,9.8,0,0,1,1.34,5,10.08,10.08,0,0,1-1.34,5.06,9.78,9.78,0,0,1-3.67,3.69A10.16,10.16,0,0,1,601,44.61a9.54,9.54,0,0,1-7-2.92A9.74,9.74,0,0,1,591,34.58a10,10,0,0,1,9.92-10.08ZM601,29a5,5,0,0,0-3.73,1.56,5.51,5.51,0,0,0-1.48,4,5.62,5.62,0,0,0,1.47,4,5.25,5.25,0,0,0,7.47,0,5.56,5.56,0,0,0,1.5-4,5.54,5.54,0,0,0-1.47-4A5,5,0,0,0,601,29Z"/><path class="cls-2" d="M613.88,25H618v2.4a5.13,5.13,0,0,1,1.77-2.16,4.32,4.32,0,0,1,2.43-.74,4.48,4.48,0,0,1,1.95.5l-1.49,4.13a3.4,3.4,0,0,0-1.39-.43,2.19,2.19,0,0,0-1.87,1.38q-.76,1.37-.77,5.37l0,.94v7.73h-4.76Z"/><path class="cls-2" d="M628.39,17.12a3,3,0,0,1,2.16.91,3,3,0,0,1,.9,2.22,3,3,0,0,1-.89,2.19,3,3,0,0,1-4.32,0,3.08,3.08,0,0,1-.9-2.24,3.06,3.06,0,0,1,3-3.06ZM626,25h4.8V44.12H626Z"/><path class="cls-2" d="M649.26,25h4.8V44.12h-4.8v-2A9.43,9.43,0,0,1,646.44,44a7.73,7.73,0,0,1-3.06.59A8.53,8.53,0,0,1,637,41.74a10,10,0,0,1-2.7-7.15,10.3,10.3,0,0,1,2.61-7.26,8.37,8.37,0,0,1,6.36-2.83,8.14,8.14,0,0,1,3.23.65,8.94,8.94,0,0,1,2.79,2Zm-5,3.93a4.85,4.85,0,0,0-3.7,1.58,5.67,5.67,0,0,0-1.47,4,5.74,5.74,0,0,0,1.5,4.08,4.85,4.85,0,0,0,3.68,1.6A4.94,4.94,0,0,0,648,38.64a5.7,5.7,0,0,0,1.49-4.12,5.55,5.55,0,0,0-1.49-4A5,5,0,0,0,644.22,28.93Z"/><path class="cls-2" d="M666.7,25h1.7c0-2.51.06-4,.13-4.45A3.7,3.7,0,0,1,669.85,18a5,5,0,0,1,3.21-.92,10,10,0,0,1,3.38.69v3.65a6.47,6.47,0,0,0-1.71-.3,1.82,1.82,0,0,0-1.23.35,1.52,1.52,0,0,0-.28,1.09l0,2.4h3v4.06h-3V44.12h-4.8V29.06h-1.7Z"/><path class="cls-2" d="M681.74,14.61h5.68L681,21.5h-3.45ZM678.53,25h4.8V44.12h-4.8Z"/><path class="cls-2" d="M699.39,27.67l-3,3a5,5,0,0,0-3.28-1.79,2.06,2.06,0,0,0-1.27.34,1,1,0,0,0-.17,1.56,5.5,5.5,0,0,0,1.44.89l1.75.88a10.33,10.33,0,0,1,3.82,2.79,5.85,5.85,0,0,1-.84,7.6,7.2,7.2,0,0,1-5,1.7,8,8,0,0,1-6.68-3.27l3-3.21a6.94,6.94,0,0,0,2,1.59,4.37,4.37,0,0,0,2,.6,2.44,2.44,0,0,0,1.53-.45,1.36,1.36,0,0,0,.58-1.06c0-.74-.7-1.46-2.09-2.16l-1.62-.81c-3.1-1.56-4.64-3.51-4.64-5.85a5.07,5.07,0,0,1,1.75-3.88,6.34,6.34,0,0,1,4.47-1.61,7.74,7.74,0,0,1,6.29,3.17Z"/><path class="cls-2" d="M705.4,17.12a3,3,0,0,1,2.16.91,3,3,0,0,1,.9,2.22,3,3,0,0,1-.89,2.19,3,3,0,0,1-4.32,0,3.08,3.08,0,0,1-.9-2.24,3.06,3.06,0,0,1,3-3.06ZM703,25h4.8V44.12H703Z"/><path class="cls-2" d="M730.88,28.86l-4,2.2a6,6,0,0,0-4.8-2.09,6,6,0,0,0-4.36,1.6,5.48,5.48,0,0,0-1.66,4.12,5.27,5.27,0,0,0,1.6,4,5.81,5.81,0,0,0,4.21,1.55,6.11,6.11,0,0,0,5-2.2l3.78,2.59a11.65,11.65,0,0,1-16.58,1,9.81,9.81,0,0,1-2.86-7,9.91,9.91,0,0,1,1.39-5.12,9.8,9.8,0,0,1,3.88-3.67,11.57,11.57,0,0,1,5.56-1.34,11.24,11.24,0,0,1,5.12,1.14A9.76,9.76,0,0,1,730.88,28.86Z"/><path class="cls-2" d="M749.32,25h4.79V44.12h-4.79v-2A9.43,9.43,0,0,1,746.5,44a7.81,7.81,0,0,1-3.07.59,8.51,8.51,0,0,1-6.4-2.87,10,10,0,0,1-2.71-7.15,10.26,10.26,0,0,1,2.62-7.26,8.34,8.34,0,0,1,6.35-2.83,8.1,8.1,0,0,1,3.23.65,9.09,9.09,0,0,1,2.8,2Zm-5.05,3.93a4.88,4.88,0,0,0-3.7,1.58,5.67,5.67,0,0,0-1.47,4,5.74,5.74,0,0,0,1.5,4.08,4.88,4.88,0,0,0,3.69,1.6A5,5,0,0,0,748,38.64a5.74,5.74,0,0,0,1.49-4.12,5.59,5.59,0,0,0-1.49-4A5,5,0,0,0,744.27,28.93Z"/></g></g></svg>