<svg xmlns="http://www.w3.org/2000/svg" viewBox="0 0 984.39 344.22"><defs><style>.cls-1{fill:#afafaf;}.cls-2{fill:#4dfffa;}.cls-3{fill:#91ff4a;}.cls-4{fill:#ff4dff;}.cls-5{fill:#4d4dff;}.cls-6{fill:#29aa54;}.cls-7{fill:#2aa5a8;}.cls-8{fill:#2a2aa8;}.cls-9{fill:#a12aa8;}</style></defs><g id="Capa_2" data-name="Capa 2"><g id="Capa_6" data-name="Capa 6"><path class="cls-1" d="M575.11,149.32H559a69.9,69.9,0,0,0-3.22-7.78l11.38-11.38a11.46,11.46,0,0,0,0-16.2L551.12,97.9a11.46,11.46,0,0,0-16.2,0l-11.38,11.39a68.71,68.71,0,0,0-7.77-3.23V90a11.46,11.46,0,0,0-11.46-11.46H481.6A11.46,11.46,0,0,0,470.15,90v16.09a68.1,68.1,0,0,0-7.78,3.23L451,97.9a11.46,11.46,0,0,0-16.2,0L418.74,114a11.44,11.44,0,0,0,0,16.2l11.38,11.38a70,70,0,0,0-3.23,7.78H410.8a11.45,11.45,0,0,0-11.46,11.45v22.71a11.45,11.45,0,0,0,11.46,11.45h16.09a70,70,0,0,0,3.23,7.78l-11.38,11.38a11.44,11.44,0,0,0,0,16.2l16.05,16.06a11.46,11.46,0,0,0,16.2,0L462.37,235a68.1,68.1,0,0,0,7.78,3.23v16.09a11.46,11.46,0,0,0,11.45,11.46h22.71a11.46,11.46,0,0,0,11.46-11.46V238.19a68.71,68.71,0,0,0,7.77-3.23l11.38,11.39a11.46,11.46,0,0,0,16.2,0l16.06-16.06a11.46,11.46,0,0,0,0-16.2L555.8,202.71a69.9,69.9,0,0,0,3.22-7.78h16.09a11.45,11.45,0,0,0,11.46-11.45V160.77A11.45,11.45,0,0,0,575.11,149.32ZM493,207.53a35.41,35.41,0,1,1,35.4-35.41A35.4,35.4,0,0,1,493,207.53Z"/><path class="cls-2" d="M536.91,30.55,501.85,50.79A121.72,121.72,0,0,1,612.77,150.9h39A160.26,160.26,0,0,0,505.44,12.39Z"/><path class="cls-3" d="M350.64,127.4l20.94,36.29A121.73,121.73,0,0,1,471,52.45V13.4A160.3,160.3,0,0,0,333.41,157.23Z"/><path class="cls-4" d="M447.48,313.67l35.2-20.32a121.71,121.71,0,0,1-109.54-100h-39A160.27,160.27,0,0,0,478.75,331.72Z"/><path class="cls-5" d="M633.76,216.82l-19.62-34A121.71,121.71,0,0,1,513.41,292.07v39A160.27,160.27,0,0,0,652.75,183.92Z"/><polygon class="cls-6" points="528.24 30.55 475.32 61.1 475.32 0 528.24 30.55"/><polygon class="cls-7" points="633.75 208.15 603.2 155.23 664.31 155.23 633.75 208.15"/><polygon class="cls-8" points="456.16 313.67 509.07 283.12 509.07 344.22 456.16 313.67"/><polygon class="cls-9" points="350.63 136.07 381.19 188.99 320.08 188.99 350.63 136.07"/><path class="cls-1" d="M153.68,158.37H144a42.71,42.71,0,0,0-2-4.68l6.86-6.86a6.89,6.89,0,0,0,0-9.76l-9.67-9.68a6.92,6.92,0,0,0-9.77,0l-6.85,6.86a40.93,40.93,0,0,0-4.69-1.94v-9.7a6.9,6.9,0,0,0-6.9-6.9H97.33a6.9,6.9,0,0,0-6.9,6.9v9.7a40.05,40.05,0,0,0-4.68,1.94l-6.86-6.86a6.92,6.92,0,0,0-9.77,0l-9.67,9.68a6.89,6.89,0,0,0,0,9.76l6.86,6.86a40.78,40.78,0,0,0-1.94,4.68h-9.7a6.92,6.92,0,0,0-6.91,6.91V179a6.92,6.92,0,0,0,6.91,6.91h9.7a40.78,40.78,0,0,0,1.94,4.68l-6.86,6.86a6.89,6.89,0,0,0,0,9.76l9.67,9.68a6.92,6.92,0,0,0,9.77,0L85.75,210a41.86,41.86,0,0,0,4.68,1.94v9.7a6.9,6.9,0,0,0,6.9,6.9H111a6.9,6.9,0,0,0,6.9-6.9v-9.7a42.81,42.81,0,0,0,4.69-1.94l6.85,6.86a6.92,6.92,0,0,0,9.77,0l9.67-9.68a6.89,6.89,0,0,0,0-9.76L142,190.55a42.71,42.71,0,0,0,2-4.68h9.69a6.91,6.91,0,0,0,6.91-6.91V165.28A6.91,6.91,0,0,0,153.68,158.37Zm-49.5,35.08a21.33,21.33,0,1,1,21.33-21.33A21.33,21.33,0,0,1,104.18,193.45Z"/><path class="cls-2" d="M130.66,86.81,109.54,99a73.35,73.35,0,0,1,66.84,60.33h23.51A96.58,96.58,0,0,0,111.7,75.86Z"/><path class="cls-3" d="M18.41,145.17,31,167a73.34,73.34,0,0,1,59.89-67V76.47A96.6,96.6,0,0,0,8,163.14Z"/><path class="cls-4" d="M76.77,257.42,98,245.17A73.35,73.35,0,0,1,32,184.9H8.46a96.6,96.6,0,0,0,87.16,83.4Z"/><path class="cls-5" d="M189,199.06,177.2,178.58a73.34,73.34,0,0,1-60.7,65.82v23.49a96.58,96.58,0,0,0,84-88.66Z"/><polygon class="cls-6" points="125.44 86.81 93.55 105.22 93.55 68.39 125.44 86.81"/><polygon class="cls-7" points="189.02 193.83 170.61 161.94 207.44 161.94 189.02 193.83"/><polygon class="cls-8" points="82 257.42 113.89 239.01 113.89 275.83 82 257.42"/><polygon class="cls-9" points="18.41 150.39 36.82 182.28 0 182.28 18.41 150.39"/><path class="cls-1" d="M930.64,158.37h-9.7a40.78,40.78,0,0,0-1.94-4.68l6.86-6.86a6.91,6.91,0,0,0,0-9.76l-9.68-9.68a6.91,6.91,0,0,0-9.76,0l-6.86,6.86a40.78,40.78,0,0,0-4.68-1.94v-9.7a6.9,6.9,0,0,0-6.91-6.9H874.29a6.9,6.9,0,0,0-6.9,6.9v9.7a40.93,40.93,0,0,0-4.69,1.94l-6.86-6.86a6.91,6.91,0,0,0-9.76,0l-9.68,9.68a6.91,6.91,0,0,0,0,9.76l6.86,6.86a44.71,44.71,0,0,0-1.94,4.68h-9.7a6.91,6.91,0,0,0-6.9,6.91V179a6.91,6.91,0,0,0,6.9,6.91h9.7a44.71,44.71,0,0,0,1.94,4.68l-6.86,6.86a6.91,6.91,0,0,0,0,9.76l9.68,9.68a6.91,6.91,0,0,0,9.76,0L862.7,210a42.81,42.81,0,0,0,4.69,1.94v9.7a6.9,6.9,0,0,0,6.9,6.9H888a6.9,6.9,0,0,0,6.91-6.9v-9.7a42.66,42.66,0,0,0,4.68-1.94l6.86,6.86a6.91,6.91,0,0,0,9.76,0l9.68-9.68a6.91,6.91,0,0,0,0-9.76L919,190.55a40.78,40.78,0,0,0,1.94-4.68h9.7a6.91,6.91,0,0,0,6.9-6.91V165.28A6.91,6.91,0,0,0,930.64,158.37Zm-49.51,35.08a21.33,21.33,0,1,1,21.33-21.33A21.33,21.33,0,0,1,881.13,193.45Z"/><path class="cls-2" d="M907.62,86.81,886.49,99a73.34,73.34,0,0,1,66.84,60.33h23.51a96.57,96.57,0,0,0-88.18-83.47Z"/><path class="cls-3" d="M795.37,145.17,808,167a73.35,73.35,0,0,1,59.9-67V76.47A96.59,96.59,0,0,0,785,163.14Z"/><path class="cls-4" d="M853.73,257.42l21.21-12.25a73.33,73.33,0,0,1-66-60.27H785.42a96.58,96.58,0,0,0,87.15,83.4Z"/><path class="cls-5" d="M966,199.06l-11.82-20.48a73.34,73.34,0,0,1-60.7,65.82v23.49a96.59,96.59,0,0,0,84-88.66Z"/><polygon class="cls-6" points="902.39 86.81 870.5 105.22 870.5 68.39 902.39 86.81"/><polygon class="cls-7" points="965.98 193.83 947.57 161.94 984.39 161.94 965.98 193.83"/><polygon class="cls-8" points="858.96 257.42 890.84 239.01 890.84 275.83 858.96 257.42"/><polygon class="cls-9" points="795.37 150.39 813.78 182.28 776.96 182.28 795.37 150.39"/><path class="cls-1" d="M302.55,170.48,271,152.25a1.9,1.9,0,0,0-2.84,1.64v6.87h-21A3.14,3.14,0,0,0,244,163.9v16.44a3.14,3.14,0,0,0,3.13,3.14h21v6.85A1.89,1.89,0,0,0,271,192l31.56-18.22A1.89,1.89,0,0,0,302.55,170.48Z"/><path class="cls-1" d="M754,170.48,722.4,152.25a1.89,1.89,0,0,0-2.83,1.64v6.87h-21a3.15,3.15,0,0,0-3.14,3.14v16.44a3.15,3.15,0,0,0,3.14,3.14h21v6.85A1.89,1.89,0,0,0,722.4,192L754,173.75A1.89,1.89,0,0,0,754,170.48Z"/></g></g></svg>