<svg xmlns="http://www.w3.org/2000/svg" viewBox="0 0 560.81 391.59"><defs><style>.cls-1{fill:#071929;stroke:#6390b8;stroke-miterlimit:10;stroke-width:1.64px;}.cls-2{font-size:29.5px;}.cls-2,.cls-5{fill:#6390b8;}.cls-2,.cls-5,.cls-6,.cls-7{font-family:CenturyGothic-Bold, Century Gothic;font-weight:700;}.cls-3,.cls-6{fill:#baff8d;}.cls-4,.cls-7{fill:#2a5368;}.cls-5,.cls-6,.cls-7{font-size:18px;}</style></defs><g id="Capa_2" data-name="Capa 2"><g id="Capa_7" data-name="Capa 7"><rect class="cls-1" x="47.38" y="134.22" width="46.56" height="44.47"/><rect class="cls-1" x="47.38" y="89.75" width="46.56" height="44.47"/><rect class="cls-1" x="373.3" y="45.29" width="46.56" height="44.47"/><rect class="cls-1" x="326.74" y="45.29" width="46.56" height="44.47"/><rect class="cls-1" x="47.38" y="45.29" width="46.56" height="44.47"/><rect class="cls-1" x="419.86" y="45.29" width="46.56" height="44.47"/><rect class="cls-1" x="280.18" y="45.29" width="46.56" height="44.47"/><rect class="cls-1" x="466.42" y="45.29" width="46.56" height="44.47"/><rect class="cls-1" x="512.98" y="45.29" width="46.56" height="44.47"/><rect class="cls-1" x="140.5" y="45.29" width="46.56" height="44.47"/><rect class="cls-1" x="233.62" y="45.29" width="46.56" height="44.47"/><rect class="cls-1" x="93.94" y="45.29" width="46.56" height="44.47"/><rect class="cls-1" x="187.06" y="45.29" width="46.56" height="44.47"/><rect class="cls-1" x="512.98" y="89.75" width="46.56" height="44.47"/><rect class="cls-1" x="466.42" y="89.75" width="46.56" height="44.47"/><rect class="cls-1" x="326.74" y="89.75" width="46.56" height="44.47"/><rect class="cls-1" x="280.18" y="89.75" width="46.56" height="44.47"/><rect class="cls-1" x="373.3" y="89.75" width="46.56" height="44.47"/><rect class="cls-1" x="419.86" y="89.75" width="46.56" height="44.47"/><rect class="cls-1" x="233.62" y="89.75" width="46.56" height="44.47"/><rect class="cls-1" x="466.42" y="134.22" width="46.56" height="44.47"/><rect class="cls-1" x="512.98" y="134.22" width="46.56" height="44.47"/><rect class="cls-1" x="187.06" y="89.75" width="46.56" height="44.47"/><rect class="cls-1" x="93.94" y="134.22" width="46.56" height="44.47"/><rect class="cls-1" x="140.5" y="134.22" width="46.56" height="44.47"/><rect class="cls-1" x="140.5" y="89.75" width="46.56" height="44.47"/><rect class="cls-1" x="419.86" y="134.22" width="46.56" height="44.47"/><rect class="cls-1" x="187.06" y="134.22" width="46.56" height="44.47"/><rect class="cls-1" x="93.94" y="89.75" width="46.56" height="44.47"/><rect class="cls-1" x="326.74" y="134.22" width="46.56" height="44.47"/><rect class="cls-1" x="233.62" y="134.22" width="46.56" height="44.47"/><rect class="cls-1" x="373.3" y="134.22" width="46.56" height="44.47"/><rect class="cls-1" x="280.18" y="134.22" width="46.56" height="44.47"/><rect class="cls-1" x="280.18" y="178.68" width="46.56" height="44.47"/><rect class="cls-1" x="140.5" y="178.68" width="46.56" height="44.47"/><rect class="cls-1" x="93.94" y="178.68" width="46.56" height="44.47"/><rect class="cls-1" x="326.74" y="178.68" width="46.56" height="44.47"/><rect class="cls-1" x="187.06" y="178.68" width="46.56" height="44.47"/><rect class="cls-1" x="466.42" y="178.68" width="46.56" height="44.47"/><path class="cls-1" d="M513,178.68v44.47h31.81a14.75,14.75,0,0,0,14.75-14.75V178.68Z"/><rect class="cls-1" x="419.86" y="178.68" width="46.56" height="44.47"/><rect class="cls-1" x="373.3" y="178.68" width="46.56" height="44.47"/><rect class="cls-1" x="233.62" y="178.68" width="46.56" height="44.47"/><path class="cls-1" d="M47.38.82H45.29A44.47,44.47,0,0,0,.82,45.29H47.38Z"/><rect class="cls-1" x="187.06" y="0.82" width="46.56" height="44.47"/><rect class="cls-1" x="0.82" y="45.29" width="46.56" height="44.47"/><rect class="cls-1" x="140.5" y="0.82" width="46.56" height="44.47"/><rect class="cls-1" x="93.94" y="0.82" width="46.56" height="44.47"/><path class="cls-1" d="M.82,178.68V208.4a14.75,14.75,0,0,0,14.75,14.75H47.38V178.68Z"/><rect class="cls-1" x="47.38" y="178.68" width="46.56" height="44.47"/><rect class="cls-1" x="0.82" y="89.75" width="46.56" height="44.47"/><rect class="cls-1" x="0.82" y="134.22" width="46.56" height="44.47"/><rect class="cls-1" x="47.38" y="0.82" width="46.56" height="44.47"/><rect class="cls-1" x="233.62" y="0.82" width="46.56" height="44.47"/><path class="cls-1" d="M559.54,45.29V15.57A14.75,14.75,0,0,0,544.79.82H513V45.29Z"/><rect class="cls-1" x="466.42" y="0.82" width="46.56" height="44.47"/><rect class="cls-1" x="280.18" y="0.82" width="46.56" height="44.47"/><rect class="cls-1" x="326.74" y="0.82" width="46.56" height="44.47"/><rect class="cls-1" x="419.86" y="0.82" width="46.56" height="44.47"/><rect class="cls-1" x="373.3" y="0.82" width="46.56" height="44.47"/><text class="cls-2" transform="translate(13.19 78.37)">A</text><text class="cls-2" transform="translate(15.54 122.84)">B</text><text class="cls-2" transform="translate(12.6 167.31)">C</text><text class="cls-2" transform="translate(13.77 211.77)">D</text><text class="cls-2" transform="translate(108.96 33.91)">1</text><text class="cls-2" transform="translate(62.4 33.91)">0</text><text class="cls-2" transform="translate(155.52 33.91)">2</text><text class="cls-2" transform="translate(202.08 33.91)">3</text><text class="cls-2" transform="translate(248.64 33.91)">4</text><text class="cls-2" transform="translate(295.2 33.91)">5</text><text class="cls-2" transform="translate(341.76 33.91)">6</text><text class="cls-2" transform="translate(388.32 33.91)">7</text><text class="cls-2" transform="translate(434.88 33.91)">8</text><text class="cls-2" transform="translate(481.44 33.91)">9</text><text class="cls-2" transform="translate(519.74 33.91)">10</text><circle class="cls-3" cx="70.66" cy="67.52" r="13.1"/><circle class="cls-3" cx="117.22" cy="67.52" r="13.1"/><circle class="cls-3" cx="163.78" cy="111.98" r="13.1"/><circle class="cls-3" cx="210.34" cy="111.98" r="13.1"/><circle class="cls-3" cx="396.58" cy="111.98" r="13.1"/><circle class="cls-3" cx="256.9" cy="156.45" r="13.1"/><circle class="cls-3" cx="303.46" cy="200.92" r="13.1"/><circle class="cls-3" cx="350.02" cy="200.92" r="13.1"/><circle class="cls-3" cx="443.14" cy="200.92" r="13.1"/><circle class="cls-3" cx="489.7" cy="200.92" r="13.1"/><circle class="cls-3" cx="536.26" cy="200.92" r="13.1"/><path class="cls-4" d="M124.6,119.37h0a1.87,1.87,0,0,1-2.63,0l-4.75-4.76-4.75,4.76a1.87,1.87,0,0,1-2.63,0h0a1.85,1.85,0,0,1,0-2.63l4.75-4.76-4.75-4.75a1.85,1.85,0,0,1,0-2.63h0a1.87,1.87,0,0,1,2.63,0l4.75,4.76L122,104.6a1.87,1.87,0,0,1,2.63,0h0a1.85,1.85,0,0,1,0,2.63L119.85,112l4.75,4.76A1.85,1.85,0,0,1,124.6,119.37Z"/><path class="cls-4" d="M264.28,119.37h0a1.87,1.87,0,0,1-2.63,0l-4.75-4.76-4.75,4.76a1.87,1.87,0,0,1-2.63,0h0a1.85,1.85,0,0,1,0-2.63l4.75-4.76-4.75-4.75a1.85,1.85,0,0,1,0-2.63h0a1.87,1.87,0,0,1,2.63,0l4.75,4.76,4.75-4.76a1.87,1.87,0,0,1,2.63,0h0a1.85,1.85,0,0,1,0,2.63L259.53,112l4.75,4.76A1.85,1.85,0,0,1,264.28,119.37Z"/><path class="cls-4" d="M310.84,119.37h0a1.87,1.87,0,0,1-2.63,0l-4.75-4.76-4.75,4.76a1.87,1.87,0,0,1-2.63,0h0a1.85,1.85,0,0,1,0-2.63l4.75-4.76-4.75-4.75a1.85,1.85,0,0,1,0-2.63h0a1.87,1.87,0,0,1,2.63,0l4.75,4.76,4.75-4.76a1.87,1.87,0,0,1,2.63,0h0a1.85,1.85,0,0,1,0,2.63L306.09,112l4.75,4.76A1.85,1.85,0,0,1,310.84,119.37Z"/><path class="cls-4" d="M357.4,119.37h0a1.87,1.87,0,0,1-2.63,0L350,114.61l-4.75,4.76a1.87,1.87,0,0,1-2.63,0h0a1.85,1.85,0,0,1,0-2.63l4.75-4.76-4.75-4.75a1.85,1.85,0,0,1,0-2.63h0a1.87,1.87,0,0,1,2.63,0l4.75,4.76,4.75-4.76a1.87,1.87,0,0,1,2.63,0h0a1.85,1.85,0,0,1,0,2.63L352.65,112l4.75,4.76A1.85,1.85,0,0,1,357.4,119.37Z"/><path class="cls-4" d="M404,208.3h0a1.87,1.87,0,0,1-2.63,0l-4.75-4.76-4.75,4.76a1.87,1.87,0,0,1-2.63,0h0a1.85,1.85,0,0,1,0-2.63l4.75-4.75-4.75-4.76a1.85,1.85,0,0,1,0-2.63h0a1.87,1.87,0,0,1,2.63,0l4.75,4.76,4.75-4.76a1.87,1.87,0,0,1,2.63,0h0a1.84,1.84,0,0,1,0,2.62l-4.75,4.76,4.75,4.75A1.85,1.85,0,0,1,404,208.3Z"/><path class="cls-4" d="M264.28,210h0a1.85,1.85,0,0,1-2.63,0l-4.75-4.75L252.15,210a1.85,1.85,0,0,1-2.63,0h0a1.85,1.85,0,0,1,0-2.63l4.75-4.75-4.75-4.75a1.85,1.85,0,0,1,0-2.63h0a1.85,1.85,0,0,1,2.63,0L256.9,200l4.75-4.75a1.85,1.85,0,0,1,2.63,0h0a1.85,1.85,0,0,1,0,2.63l-4.75,4.75,4.75,4.75A1.85,1.85,0,0,1,264.28,210Z"/><rect class="cls-1" x="336.32" y="283.01" width="111.83" height="26.94"/><path class="cls-1" d="M112.65,256.07H9.82c-5,0-9,4.59-9,10.24V283H112.65Z"/><rect class="cls-1" x="112.65" y="256.07" width="111.83" height="26.94"/><rect class="cls-1" x="224.49" y="256.07" width="111.83" height="26.94"/><rect class="cls-1" x="336.32" y="256.07" width="111.83" height="26.94"/><rect class="cls-1" x="336.32" y="336.89" width="111.83" height="26.94"/><rect class="cls-1" x="224.49" y="336.89" width="111.83" height="26.94"/><rect class="cls-1" x="112.65" y="283.01" width="111.83" height="26.94"/><rect class="cls-1" x="224.49" y="309.95" width="111.83" height="26.94"/><rect class="cls-1" x="224.49" y="283.01" width="111.83" height="26.94"/><rect class="cls-1" x="112.65" y="336.89" width="111.83" height="26.94"/><rect class="cls-1" x="112.65" y="309.95" width="111.83" height="26.94"/><rect class="cls-1" x="336.32" y="309.95" width="111.83" height="26.94"/><rect class="cls-1" x="336.32" y="363.83" width="111.83" height="26.94"/><rect class="cls-1" x="448.16" y="336.89" width="111.83" height="26.94"/><path class="cls-1" d="M448.16,390.77H551c5,0,9-4.58,9-10.24v-16.7H448.16Z"/><rect class="cls-1" x="448.16" y="309.95" width="111.83" height="26.94"/><rect class="cls-1" x="448.16" y="283.01" width="111.83" height="26.94"/><path class="cls-1" d="M448.16,256.07V283H560v-16.7c0-5.65-4-10.24-9-10.24Z"/><rect class="cls-1" x="224.49" y="363.83" width="111.83" height="26.94"/><rect class="cls-1" x="0.82" y="309.95" width="111.83" height="26.94"/><rect class="cls-1" x="0.82" y="336.89" width="111.83" height="26.94"/><rect class="cls-1" x="0.82" y="283.01" width="111.83" height="26.94"/><rect class="cls-1" x="112.65" y="363.83" width="111.83" height="26.94"/><path class="cls-1" d="M.82,363.83v16.7c0,5.66,4,10.24,9,10.24H112.65V363.83Z"/><text class="cls-5" transform="translate(136.54 276.17)">T inicial</text><text class="cls-5" transform="translate(247.82 276.17)">Trabajo</text><text class="cls-5" transform="translate(366.69 276.17)">T total</text><text class="cls-5" transform="translate(474.91 276.17)">Espera</text><text class="cls-5" transform="translate(50.08 303.11)">A</text><text class="cls-5" transform="translate(51.52 330.04)">B</text><text class="cls-5" transform="translate(50.63 356.98)">C</text><text class="cls-5" transform="translate(50.44 383.92)">D</text><text class="cls-6" transform="translate(163.08 303.11)">0</text><text class="cls-6" transform="translate(163.08 330.04)">1</text><text class="cls-6" transform="translate(163.98 356.98)">2</text><text class="cls-6" transform="translate(163.08 383.92)">4</text><text class="cls-6" transform="translate(274.91 303.11)">2</text><text class="cls-6" transform="translate(274.91 330.04)">3</text><text class="cls-6" transform="translate(275.82 356.98)">1</text><text class="cls-6" transform="translate(274.91 383.92)">5</text><text class="cls-6" transform="translate(386.75 303.11)">2</text><text class="cls-6" transform="translate(386.75 330.04)">7</text><text class="cls-6" transform="translate(387.65 356.98)">1</text><text class="cls-6" transform="translate(386.75 383.92)">7</text><text class="cls-7" transform="translate(498.58 303.11)">0</text><text class="cls-7" transform="translate(498.58 330.04)">4</text><text class="cls-7" transform="translate(499.49 356.98)">0</text><text class="cls-7" transform="translate(498.58 383.92)">2</text></g></g></svg>