<svg xmlns="http://www.w3.org/2000/svg" viewBox="0 0 793.2 555.89"><defs><style>.cls-1{fill:#cad225;}</style></defs><g id="Capa_2" data-name="Capa 2"><g id="Capa_10" data-name="Capa 10"><path class="cls-1" d="M776.18,361.12c-14.25-19-44.84-40.88-77.54-53.54s-46.16-21.36-61.19-29-27.16-34-8.18-57.76,63-10.81,95,6.33l55.65-54.85s-81.23-61.19-183.3-28.75C541.09,161,515.11,220.24,521.93,273c3.7,34.82,27.65,68.26,57.23,88.09,0,0,33.24,24.13,68.44,35s46.88,24.53,45.5,43.72-6.86,30.85-32.7,38.37H487.81A41.24,41.24,0,0,1,446.57,437V223.45h78V145.91h-78V0H340.71V145.91h-159V427.75a37.81,37.81,0,0,1-37.81,37.81h0a37.81,37.81,0,0,1-37.81-37.81V145.91H0V414.64A141.25,141.25,0,0,0,141.25,555.89h5.4A141.25,141.25,0,0,0,287.9,414.64V223.45h52.81V451.27c0,56.8,46.05,104.62,102.84,104.62H660.4s77.53-1.19,112.35-59.21S790.42,380.11,776.18,361.12Z"/></g></g></svg>